/* XPM */
static char *_b575499fae74117ede409323f57aadcxaDQbYxZkAjSRFNG_0[] = {
/* columns rows colors chars-per-pixel */
"32 32 5 1 ",
"  c None",
". c #001F08",
"X c #004110",
"o c #00711C",
"O c #00FF41",
/* pixels */
"                                ",
"                                ",
"               oO               ",
"              ooOO              ",
"             oooOOO             ",
"            ooooOOOO            ",
"           oooooOOOOO           ",
"          ooooooOOOOOO          ",
"         oooooooOOOOOOO         ",
"        ooooooooOOOOOOOO        ",
"        XoooooooOOOOOOOo        ",
"        XXXoooooOOOOOooo        ",
"        XXXXXoooOOOooooo        ",
"        XXXXXXXoOooooooo        ",
"        XXXXXXXXoooooooo        ",
"        XXXXXXXXoooooooo        ",
"        XXXXXXXXoooooooo        ",
"        XXXXXXXXoooooooo        ",
"        XXXXXXXXoooooooo        ",
"        XXXXXXXXoooooooo        ",
"        XXXXXXXXoooooooo        ",
"        XXXXXXXXoooooooo        ",
"        XXXXXXXXoooooooo        ",
"         XXXXXXXooooooo         ",
"          .XXXXXoooooX          ",
"           ..XXXoooXX           ",
"            ...XoXXX            ",
"             ...XXX             ",
"              ..XX              ",
"               .X               ",
"                                ",
"                                "
};
