/* XPM */
static char *result[] = {
/* columns rows colors chars-per-pixel */
"64 64 79 1 ",
"  c black",
". c #000001",
"X c #010202",
"o c #020203",
"O c #020304",
"+ c #050404",
"@ c #040405",
"# c #050506",
"$ c #07090B",
"% c #0B0B0D",
"& c #0F1113",
"* c #111012",
"= c #101113",
"- c #121416",
"; c #14181A",
": c #15181B",
"> c #200708",
", c #300C0D",
"< c #0D1D23",
"1 c #1C1E21",
"2 c #1C2124",
"3 c #1F2327",
"4 c #142931",
"5 c #16313A",
"6 c #23252B",
"7 c #24282D",
"8 c #282A30",
"9 c #292E33",
"0 c #2D3337",
"q c #31373D",
"w c #691618",
"e c #7B1A1D",
"r c #2E3B42",
"t c #343B42",
"y c #393D41",
"u c #3E4347",
"i c #3B454D",
"p c #2B6073",
"a c #454C54",
"s c #444D56",
"d c #4E555C",
"f c #585F66",
"g c #5A6169",
"h c #52707C",
"j c #5A7078",
"k c #616970",
"l c #6B797D",
"z c #7E7E7E",
"x c #C02A2E",
"c c #D12E31",
"v c #E93438",
"b c #327187",
"n c #697E85",
"m c #747D8A",
"M c #7C8795",
"N c #6E95A6",
"B c #7DAABE",
"V c #4FB1D2",
"C c #56C0E4",
"Z c #60D6FE",
"A c #818181",
"S c #86919F",
"D c #8792A1",
"F c #8B96A6",
"G c #909CAC",
"H c #9CAABB",
"J c #83B0C3",
"K c #94BECF",
"L c #A3C7D3",
"P c #96CBE3",
"I c #9CD3EB",
"U c #A0D9F2",
"Y c #A2DCF6",
"T c #B1E3F6",
"R c #D0D1D1",
"E c #C5E4EA",
"W c #CAEAF0",
"Q c #E8E9E9",
"! c #536882",
/* pixels */
"!!!!!!!!!!!!!!!!!!!!!!!!!!!!!!!!!!!!!!!!!!!!!!!!!!!!!!!!!!!!!!!!",
"!!!!!!!!!!!!!!!!!!!!!!!!!!!!!!!!!!!!!!!!!!!!!!!!!!!!!!!!!!!!!!!!",
"!!!!!!!!!!!!!!!!!!!!!!!!!!!!!!!!!!!!!!!!!!!!!!!!!!!!!!!!!!!!!!!!",
"!!!!!!!!!!!!!!!!!!!!!!!!!!!!!!!!!!!!!!!!!!!!!!!!!!!!!!!!!!!!!!!!",
"!!!!!!!!!!!!!!!!!!!!!!!!!!!!!!!!!!!!!!!!!!!!!!!!!!!!!!!!!!!!!!!!",
"!!!!!!!!!!!!!!!!!!!!!!!!!!!!!!!!!!!!!!!!!!!!!!!!!!!!!!!!!!!!!!!!",
"!!!!!!!!!!!!!!!!!!!!!!!!!!!!!!!!!!!!!!!!!!!!!!!!!!!!!!!!!!!!!!!!",
"!!!!!!!!!!!!!!!!!!!!!!!!!!!!!!!!!!!!!!!!!!!!!!!!!!!!!!!!!!!!!!!!",
"!!!!!!!!!!!!!!!!!!!!!!!!!!!!!!!!!!!!!!!!!!!!!!!!!!!!!!!!!!!!!!!!",
"!!!!!!!!!!!!!!!!!!!!!!!!!!!!!!!!!!!!!!!!!!!!!!!!!!!!!!!!!!!!!!!!",
"!!!!!!!!!!!!!!!!!!!!!!!!!!!!!O!!!!!!!!!!!!!!!!!!!!!!!!!!!!!!!!!!",
"!!!!!!!!!!!!!!!!!!!!!!  !!!!!O!!!!!  !!!!!!!!!!!!!!!!!!!!!!!!!!!",
"!!!!!!!!!!!!!!!!!!!!!!  !!!!!O!!!!!  !!!!!!!!!!!!!!!!!!!!!!!!!!!",
"!!!!!!!!!!!!!!!!!!!!!!!.!!!!!O!!!!!.!!!!!!!!!!!!!!!!!!!!!!!!!!!!",
"!!!!!!!!!!!!!!!!!!!!!!!  !!!!!!!!!  !!!!!!!!!!!!!!!!!!!!!!!!!!!!",
"!!!!!!!!!!!!!!!!!!!!!!!!!!!!!!!!!!!!!!!!!!!!!!!!!!!!!!!!!!!!!!!!",
"!!!!!!!!!!!!!!!!!!!!!!!!!!!!!!!!!!!!!!!!!!!!!!!!!!!!!!!!!!!!!!!!",
"!!!!!!!!!!!!!!!!!                         !!!!!!!!!!!!!!!!!!!!!!",
"!!!!!!!!!!!!!!!!+,,,,,,o10000000001$455554+!!!!!!!!!!!!!!!!!!!!!",
"!!!!!!!!!!!!!!!!>xvvvvc,nEEEEEEEEEn4CZZZZV<!!!!!!!!!!!!!!!!!!!!!",
"!!!!!!!!!!!!!!!!>xvvvvc,nWWWWWWWWWn4CZZZZV<!!!!!!!!!!!!!!!!!!!!!",
"!!!!!!!!!!!!!!!!>xvvvvc,nWWWWWWWWWm4CZZZZV<!!!!!!!!!!!!!!!!!!!!!",
"!!!!!!!!!!!!!!!!+weeeew%ullllllllnu-pbbbbp;!!!!!!!!!!!!!!!!!!!!!",
"!!!!!!!!!!!!!!!!  #$*--&-----------&---$#  !!!!!!!!!!!!!!!!!!!!!",
"!!!!!!!!!!!!!!!!!! @3777777777777777773@ !!!!!!!!!!!!!!!!!!!!!!!",
"!!!!!!!!!!!!!!!!! #:2222222222222222222:# !!!!!!!!!!!!!!!!!!!!!!",
"!!!!!!!!!!!!!!!!!;nKLLLLLLLLLLLLLLLLLLLKn;!!!!!!!!!!!!!!!!!!!!!!",
"!!!!!!!!!!!!!!!!XjTTTTTTTTTTTTTTTTTTTTTTTjX!!!!!!!!!!!!!!!!!!!!!",
"!!!!!!!!!!!!!!!!<JYUUUUUUUUUUUUUUUUUUUUUYJ<!!!!!!!!!!!!!!!!!!!!!",
"!!!!!!!! :76; ! rIUUUUUUUUUUUUUUUUUUUUUUUIr ! ;67: !!!!!!!!!!!!!",
"!!!!!!!!+mGGg#!XnUUUYYYYYYYYYYYYYYYYYYYUUUnX!#gGGm+!!!!!!!!!!!!!",
"!!!!!!!!.ulmdO ;JYUIBNNNNNNNNNNNNNNNNNBIUYJ; Odmlu.!!!!!!!!!!!!!",
"!!!!!!!!!.==O+XiPYYN3-:::::::::::::::-3NYYPiX+O==.!!!!!!!!!!!!!!",
"!!!!!!!!!!!!!.ohPPKi&0qqqqqqqqqqqqqqq0&iKPPho.!!!!!!!!!!!!!!!!!!",
"!!!!!!!!!!   Oo6rr0$$-----------------$$0rr6oO   !!!!!!!!!!!!!!!",
"!!!!!!!!! %2366322233333333333333333333322236632% !!!!!!!!!!!!!!",
"!!!!!!!!!%0977778yi9777777777777rau87779iy8777790%!!!!!!!!!!!!!!",
"!!!!!!!! -9%8999*30$&-----------0fi:--&$03*9998%9- !!!!!!!!!!!!!",
"!!!!!!!! :81RQQQu19-agffffffffffkkkgfga-91uQQQR18: !!!!!!!!!!!!!",
"!!!!!!!!!09*lAAz319-dkkkkkkkkkkkkkkkkkd-913zAAl*8: !!!!!!!!!!!!!",
"!!!!!!!!!sr:-:::-99-dkkkkkkkkkkkkkkkkkd-99-:::-:q: !!!!!!!!!!!!!",
"!!!!!!!!!taiiiiiia9-dkkkkkkkkkkkkkkkkkd-9aiiiiiia: !!!!!!!!!!!!!",
"!!!!!!!! &89999999:%0yyyyyyyyyyyyyyyyy0%:99999998% !!!!!!!!!!!!!",
"!!!!!!!!@-11&$:1$%1111111111111111111111111%$1:$&12-@!!!!!!!!!!!",
"!!!!!!!!ofFDd3mM8uSDDDDDDDDDDDDDDDDDDDDDDDSu8Mm3dDFfo!!!!!!!!!!!",
"!!!!!!!!okHHf7DG0aHHHHHHHHHHHHHHHHHHHHHHHHHa0GD7fHHko!!!!!!!!!!!",
"!!!!!!!!ofGFd6SG0uFFFFFFFFFFFFFFFFFFFFFFFFFu0GS6dFGfo!!!!!!!!!!!",
"!!!!!!!!+%&&$3DG0o&&&&&&&&&&&&&&&&&&&&&&&&&o0GD3$&&%+!!!!!!!!!!!",
"!!!!!!!!! $%-dd1$$ !.o$$$$$$$$$$$$$$$o.! $$1dd-%$ !!!!!!!!!!!!!!",
"!!!!!!!!!!%:%%%%:* !!XOOOOOOOOOOOOOOOX!! *:%%%%:%!!!!!!!!!!!!!!!",
"!!!!!!!!!!%666667* !!!!!!!!!!!!!!!!!!!!! *766666%!!!!!!!!!!!!!!!",
"!!!!!!!!!!%688887* !!!!!!!!!!!!!!!!!!!!! *788886%!!!!!!!!!!!!!!!",
"!!!!!!!!!!O*----*@!!!!!!!!!!!!!!!!!!!!!!!@*----*O!!!!!!!!!!!!!!!",
"!!!!!!!!!!!      !!!!!!!!!!!!!!!!!!!!!!!!!      !!!!!!!!!!!!!!!!",
"!!!!!!!!!!!!!!!!!!!!!!!!!!!!!!!!!!!!!!!!!!!!!!!!!!!!!!!!!!!!!!!!",
"!!!!!!!!!!!!!!!!!!!!!!!!!!!!!!!!!!!!!!!!!!!!!!!!!!!!!!!!!!!!!!!!",
"!!!!!!!!!!!!!!!!!!!!!!!!!!!!!!!!!!!!!!!!!!!!!!!!!!!!!!!!!!!!!!!!",
"!!!!!!!!!!!!!!!!!!!!!!!!!!!!!!!!!!!!!!!!!!!!!!!!!!!!!!!!!!!!!!!!",
"!!!!!!!!!!!!!!!!!!!!!!!!!!!!!!!!!!!!!!!!!!!!!!!!!!!!!!!!!!!!!!!!",
"!!!!!!!!!!!!!!!!!!!!!!!!!!!!!!!!!!!!!!!!!!!!!!!!!!!!!!!!!!!!!!!!",
"!!!!!!!!!!!!!!!!!!!!!!!!!!!!!!!!!!!!!!!!!!!!!!!!!!!!!!!!!!!!!!!!",
"!!!!!!!!!!!!!!!!!!!!!!!!!!!!!!!!!!!!!!!!!!!!!!!!!!!!!!!!!!!!!!!!",
"!!!!!!!!!!!!!!!!!!!!!!!!!!!!!!!!!!!!!!!!!!!!!!!!!!!!!!!!!!!!!!!!",
"!!!!!!!!!!!!!!!!!!!!!!!!!!!!!!!!!!!!!!!!!!!!!!!!!!!!!!!!!!!!!!!!",
"!!!!!!!!!!!!!!!!!!!!!!!!!!!!!!!!!!!!!!!!!!!!!!!!!!!!!!!!!!!!!!!!"
};
