/* XPM */
static char *result[] = {
/* columns rows colors chars-per-pixel */
"64 64 89 1 ",
"  c #2C2F38",
". c #2E313A",
"X c #33363E",
"o c #373941",
"O c #3B3E45",
"+ c #42444C",
"@ c #4B4E55",
"# c #4E5057",
"$ c #515357",
"% c #55595F",
"& c #575A60",
"* c #5E5F62",
"= c #5E6062",
"- c #606367",
"; c #64666A",
": c #67696E",
"> c #747578",
", c #797979",
"< c #CC4B4C",
"1 c #CA504C",
"2 c #CD4F50",
"3 c #CD5253",
"4 c #CF5758",
"5 c #CF5C5D",
"6 c #D05E5F",
"7 c #D05F60",
"8 c #D16464",
"9 c #D26668",
"0 c #D26A6B",
"q c #D36F70",
"w c #D47374",
"e c #D57B7C",
"r c #B28D46",
"t c #B19046",
"y c #B2914A",
"u c #AC9867",
"i c #7A7C80",
"p c #D67F81",
"a c #828486",
"s c #848589",
"d c #96979A",
"f c #97989C",
"g c #A3A5A7",
"h c #A4A6A8",
"j c #ABACB0",
"k c #AFB1B3",
"l c #B1B1B3",
"z c #B7B8BB",
"x c #BBBCBE",
"c c #D78383",
"v c #D88586",
"b c #D78788",
"n c #D88789",
"m c #D88A8B",
"M c #D98F90",
"N c #DA9495",
"B c #DC9B9C",
"V c #DDA5A5",
"C c #DDA7A8",
"Z c #DEAAAB",
"A c #C0BEB8",
"S c #DFB1B1",
"D c #E0B3B4",
"F c #E1B7B8",
"G c #E1B9BA",
"H c #C2C0BC",
"J c #BEBFC0",
"K c #E3BFC0",
"L c #CAC9C6",
"P c #CBCCCC",
"I c #D0D1D3",
"U c #D9DADB",
"Y c #E3C3C4",
"T c #E5CBCB",
"R c #E6CFD0",
"E c #E6D4D4",
"W c #E7D7D8",
"Q c #E7DBDC",
"! c #E8DBDC",
"~ c #E9DFE0",
"^ c #DFE0E1",
"/ c #E3E4E5",
"( c #E9E3E3",
") c #E6E7E8",
"_ c #EAE7E8",
"` c #EBEBEC",
"' c #ECEFF0",
"] c #ECF0F1",
"[ c #536882",
/* pixels */
"[[[[[[[[[[[[[[[[[[[[[<<<<<<<<<<<<<<<<<<<<<<[[[[[[[[[[[[[[[[[[[[[",
"[[[[[[[[<<<<<<<<<<<<<<<<<<<<<<<<<<<<<<<<<<<<<<<<<<<<<<<<[[[[[[[[",
"[<<<<<<<<<<<<<<<<<<<<<<<<<<<<<<<<<<<<<<<<<<<<<<<<<<<<<<<<<<<<<<[",
"<<<<<<<<<<<<<<<<<<<<<<<<<<<<<<<<<<<<<<<<<<<<<<<<<<<<<<<<<<<<<<<<",
"<<<<<<<<<<<<<<<<<6<<<<5N3<<<mV<<<<Vm<<<<9mv6<<<<<<<<<<1<<<<<<<<<",
"<<<<<<<<<wCGTT0<e'G<<<D]D<<<`'w<<w`_<<3D]]]`N<<<DW5<<<e9<<<<<<<<",
"<<<<<<<<c]]]]]N<n]E<<<F'`w<<`]w<<w]`<<V]`W(]]e<<`]w<<9'~<<<<<<<<",
"[<<<<<<<T]TCNc<<e](<<<S]]R<<(]w<<e](<<(]B<3K`N<3]]9<<p]~<<<<<<<[",
"[<<<<<<<T]N<<<<<w]`<<<C']'n<('e<<e'(<<''w<<3w<<8''6<<N'T<<<<<<<[",
"[<<<<<<<G]C<<<<<9]]3<<V]]'~3('e<<e'(<<R'Ec6<<<<q]`<<<C]G<<<<<<<[",
"[<<<<<<<C]YmVZb<5''8<<B]T('V~'e<<p'~<<w`]]'K6<<v]`CBmT]C<<<<<<<[",
"[<<<<<<<N]`]'](<3''0<<B]TN'``'p<<c]!<<<9T']'E<<Z]]]]]']Z<<<<<<<[",
"[<<<<<<<c]`EYSe<<`'w<<M'R2W']]c<<c'!<<<<<<e`'p<B]!DTE']N<<<<<<<[",
"[<<<<<<<w]`<<<<<<~'c<<m'W<v]]]v<<v'W<<9c<<<T]N<C]G<<2`]w<<<<<<<[",
"[[<<<<<<6]]6<<<<<E'm<<c'Q<<T]]c<<v]W<<!'B3w`]e<D]C<<5]]7<<<<<<[[",
"[[<<<<<<<']0<<<<<T'B<<e'(<<w']m<<m]W<<Z']'''E1<Y]B<<q]'<<<<<<<[[",
"[[<<<<<<<!]c<<<<<G]B<<8`T<<<Z(9<<9`Z<<2Z`''Y6<<T]M<<c'!<<<<<<<[[",
"[[<<<<<<<G]w<<<<<6N3<<<53<<<<<<<<<<<<<<<4w6<<<<eD4<<w`G<<<<<<<[[",
"[[<<<<<<<28<<<<<<<<<<<<<<<<<<<<<<<<<<<<<<<<<<<<<<<<<<83<<<<<<<[[",
"[[<<<<<<<<<<<<<<<<<<<<<<<<<<<<<<<<<<<<<<<<<<<<<<<<<<<<<<<<<<<<[[",
"[[[<<<<<<<<<<<<<<<<<<<<<<<<<<<<<<<<<<<<<<<<<<<<<<<<<<<<<<<<<<[[[",
"[[[<<<<<<<<<<<<<<<<<<[[[[[[[[[[[[[[[[[[[[[[<<<<<<<<<<<<<<<<<<[[[",
"[[[1<<<<<[[[[[[[[[[[[[[[[[[[[[[[[[[[[[[[[[[[[[[[[[[[[[[<<<<<1[[[",
"[[[rr[[[[[[[[[[[[[[[[[[[[[[[[[[[[[[[[[[[[[[[[[[[[[[[[[[[[[[ry[[[",
"[[[tt[[[[[[[[[[[[[[[[[[[[[[[[[[[[[[[[[[[[[[[[[[[[[[[[[[[[[[tt[[[",
"[[[tt[[[[[[[[[[[[[[[[[[[[[[[[[[[[[[[[[[[[[[[[[[[[[[[[[[[[[[tt[[[",
"[[[ttt[[[[[[[[[[[[[[[[[[[[[[[[[[[[[[[[[[[[[[[[[[[[[[[[[[[[ttt[[[",
"[[[ttt[[[[[[[[[[[[[[[[[[[[[[[[[[[[[[[[[[[[[[[[[[[[[[[[[[[[ttt[[[",
"[[[[tt[[[[[[[[[[[[[[[[[[[[[[[[[[[[[[[[[[[[[[[[[[[[[[[[[[[[tt[[[[",
"[[[[tt[[[[[[[[[[[[[[[[[[[[[[[[[[[[[[[[[[[[[[[[[[[[[[[[[[[[tt[[[[",
"[[[[tt[[[[[[[[[[[[[[[[[[[[[[[[[[[[[[[[[[[[[[[[[[[[[[[[[[[[tt[[[[",
"[[[[tt[[[[[[[[[[[[[[[[[[[[[[[[[[[[[[[[[[[[[[[[[[[[[[[[[[[[tt[[[[",
"[[[[tt[[[[[[[[[[[[[[[[[[[[[[[[[[[[[[[[[[[[[[[[[[[[[[[[[[[[tt[[[[",
"[[[[ttt[[[[[[[[[[[[[[[[[[[[[[[[[[[[[[[[[[[[[[[[[[[[[[[[[[ttt[[[[",
"[[[[ttt[[[[[[[[[[[[[[[[[[[[[[[[[[[[[[[[[[[[[[[[[[[[[[[[[[tt[[[[[",
"[[[[[tt[[[[[[[[[[[[[[[[[[[[[[[[[[[[[[[[[[[[[[[[[[[[[[[[[[tt[[[[[",
"[[[[[tt[[[[[[[[[[[[[[[[[[[[[[[[[[[[[[[[[[[[[[[[[[[[[[[[[[tt[[[[[",
"[[[[[tt[[[[[[[[[[[[[[[[[[[[[[[[[[[[[[[[[[[[[[[[[[[[[[[[[[tt[[[[[",
"[[[[[tt[[[[[[[[[[[[[[[[[[[[[[[[[[[[[[[[[[[[[[[[[[[[[[[[[[tt[[[[[",
"[[[[[tt[[[[[[[[[[[[[[[[[[[[[[[[[[[[[[[[[[[[[[[[[[[[[[[[[[tt[[[[[",
"[[[[[ttt[[[[[[[[[[[[[[[[[[[[[[[[[[[[[[[[[[[[[[[[[[[[[[[[ttt[[[[[",
"[[[[[[tt[[[[[[[[[[[[[[[[[[[[[[[[[[[[[[[[[[[[[[[[[[[[[[[[tt[[[[[[",
"[[[[[[tt[[[[[[[[[[[[[[[[[[[[[[[[[[[[[[[[[[[[[[[[[[[[[[[[tt[[[[[[",
"[[[[[[tt[[[[[[[[[[[[[[[[[[[[[[[[[[[[[[[[[[[[[[[[[[[[[[[[tt[[[[[[",
"[[[[[[tt[[[[[[[[[[[[[[[[[[[[[[[[[[[[[[[[[[[[[[[[[[[[[[[[tt[[[[[[",
"[[[[[[tt[[[[[[[[[[[[[[[[[[[[[[[[[[[[[[[[[[[[[[[[[[[[[[[[tt[[[[[[",
"[[[[[[tt[[[[[[[[[[[[[[[[[[[[[[[[[[[[[[[[[[[[[[[[[[[[[[[ttt[[[[[[",
"[[[[[[tty[[[[[[[[[OOOOOdzJJJJ*OOOO*xxxxxfOOOOO[[[[[[[[[tty[[[[[[",
"[[[[[[[tt[[[[[[[O     &/)))))O    O)))))/&     O[[[[[[[tt[[[[[[[",
"[[[[[[[tt[[[[[[O     .P)))))U      U)))))PX     o[[[[[[tt[[[[[[[",
"[[[[[[[tt[[[[[X      d))))))g     .h))))))f     .X[[[[[tt[[[[[[[",
"[[[[[[[tt[[[[#@@@@@@&JJJJJJJi@@@@@@iJJJxJJx%@@@@@@#[[[[tt[[[[[[[",
"[[[[[[[tt[[j/))))))/O       j))))))a    .  O^))))))/l[[tt[[[[[[[",
"[[[[[[[tttz)))))))):        I))))))z        :))))))))xyyt[[[[[[[",
"[[[[[[[tyA))))))))l.       O)))))))).        j)_))))))Hyt[[[[[[[",
"[[[[[[[[L`)))))))/O        :))))))))+        O/()))))))Lu[[[[[[[",
"[[[[[[[,aaaaaaaaa>$$$$$$$$$;aaaaaaaa=$$$$$$$$$>aaaaaaaaa,[[[[[[[",
"[[[[[[***************************************************=[[[[[[",
"[[[[[******************************************************[[[[[",
"[[[=*********************************************************[[[",
"[[*********************=**************************************[[",
"[**************************************************************[",
"*********************************************-******************",
"********************************************-%******************"
};
