/* XPM */
static char *result[] = {
/* columns rows colors chars-per-pixel */
"64 66 223 2 ",
"   c #111211",
".  c #1A1A18",
"X  c #1E1F1E",
"o  c #262521",
"O  c #262522",
"+  c #252A2C",
"@  c #2B2B29",
"#  c #332F2A",
"$  c #353029",
"%  c #2A3032",
"&  c #2E373C",
"*  c #333635",
"=  c #353636",
"-  c #393937",
";  c #363C3F",
":  c #463E37",
">  c #423E38",
",  c #48443E",
"<  c #3B4041",
"1  c #3C4449",
"2  c #414443",
"3  c #454847",
"4  c #4C4841",
"5  c #41494D",
"6  c #4A4C4A",
"7  c #4A4C4B",
"8  c #544D44",
"9  c #514F4B",
"0  c #57524B",
"q  c #58514B",
"w  c #5C564E",
"e  c #454C50",
"r  c #464E54",
"t  c #4B4F51",
"y  c #4C4F50",
"u  c #4F5353",
"i  c #4A5255",
"p  c #4B5459",
"a  c #4E565B",
"s  c #545554",
"d  c #5A5753",
"f  c #51585B",
"g  c #53595A",
"h  c #52595B",
"j  c #575B5B",
"k  c #525A5E",
"l  c #5C5B58",
"z  c #595E5E",
"x  c #605A52",
"c  c #645E57",
"v  c #685C51",
"b  c #6A6057",
"n  c #63615C",
"m  c #6F645A",
"M  c #68645D",
"N  c #73685D",
"B  c #535C62",
"V  c #565F63",
"C  c #555F6E",
"Z  c #576066",
"A  c #596162",
"S  c #5D6162",
"D  c #5B6267",
"F  c #5D6667",
"G  c #5A646A",
"H  c #5C676C",
"J  c #5F696E",
"K  c #5D6875",
"L  c #606567",
"P  c #696863",
"I  c #6D6B66",
"U  c #61676C",
"Y  c #676A6B",
"T  c #626A6F",
"R  c #656C6D",
"E  c #716B62",
"W  c #726E66",
"Q  c #796E63",
"!  c #7E7367",
"~  c #747069",
"^  c #76736C",
"/  c #7A756C",
"(  c #666D70",
")  c #626D75",
"_  c #686E70",
"`  c #6B6F70",
"'  c #667075",
"]  c #6B7171",
"[  c #697074",
"{  c #687174",
"}  c #6C7275",
"|  c #67727A",
" . c #69757B",
".. c #6C7478",
"X. c #6E767A",
"o. c #6E787C",
"O. c #7B7771",
"+. c #7E7971",
"@. c #7A7A76",
"#. c #717A7E",
"$. c #7A7D7E",
"%. c #80766C",
"&. c #8E7D6A",
"*. c #827A70",
"=. c #867D72",
"-. c #817C74",
";. c #827F78",
":. c #878076",
">. c #8D8071",
",. c #83807A",
"<. c #87847C",
"1. c #8B8278",
"2. c #8B857C",
"3. c #8E887E",
"4. c #908577",
"5. c #95897B",
"6. c #9B8D7C",
"7. c #6A7882",
"8. c #6E7A83",
"9. c #737C82",
"0. c #747C80",
"q. c #777E80",
"w. c #767E83",
"e. c #727E86",
"r. c #7B7F80",
"t. c #778083",
"y. c #788185",
"u. c #7A8286",
"i. c #7F8587",
"p. c #758189",
"a. c #77838C",
"s. c #77848C",
"d. c #7B858C",
"f. c #7C888E",
"g. c #7E8A92",
"h. c #798994",
"j. c #7E8D96",
"k. c #838582",
"l. c #8F8A82",
"z. c #82898C",
"x. c #938C81",
"c. c #968E83",
"v. c #9B9185",
"b. c #949088",
"n. c #97958E",
"m. c #9B9489",
"M. c #9F968B",
"N. c #9F988E",
"B. c #808A90",
"V. c #828B90",
"C. c #828C91",
"Z. c #858E93",
"A. c #818E96",
"S. c #868F94",
"D. c #869197",
"F. c #8B9192",
"G. c #829099",
"H. c #869298",
"J. c #85939C",
"K. c #89949B",
"L. c #8B959A",
"P. c #8C959A",
"I. c #89979E",
"U. c #8D979E",
"Y. c #969A9A",
"T. c #A19383",
"R. c #A59889",
"E. c #A69C8D",
"W. c #A09B93",
"Q. c #A49F97",
"!. c #A99F91",
"~. c #ABA195",
"^. c #ACA498",
"/. c #B1A99E",
"(. c #8896A0",
"). c #8A98A1",
"_. c #8D9AA2",
"`. c #8E9CA5",
"'. c #8E9EA8",
"]. c #919BA1",
"[. c #919CA2",
"{. c #949DA2",
"}. c #909EA8",
"|. c #92A0A7",
" X c #93A0A7",
".X c #98A1A6",
"XX c #94A1A9",
"oX c #94A1AB",
"OX c #94A2AB",
"+X c #95A4AE",
"@X c #9BA3A8",
"#X c #9BA5AB",
"$X c #9CA4A8",
"%X c #98A4AC",
"&X c #9AA6AD",
"*X c #9CA7AE",
"=X c #97A6B2",
"-X c #96A7B3",
";X c #9CA9B2",
":X c #9EABB3",
">X c #9FACB4",
",X c #9FAEB5",
"<X c #A0AEB7",
"1X c #A4AEB4",
"2X c #A1AFB8",
"3X c #A4B1B8",
"4X c #A4B1BA",
"5X c #A7B4BB",
"6X c #A7B5BE",
"7X c #A9B5BB",
"8X c #A9B5BC",
"9X c #AAB7BF",
"0X c #ABBAC1",
"qX c #ACB9C0",
"wX c #ACB9C1",
"eX c #AEBBC4",
"rX c #B0BFC8",
"tX c #B2BFC8",
"yX c #B3C0C6",
"uX c #B4C2CA",
"iX c #B4C3CB",
"pX c #B7C4CD",
"aX c None",
/* pixels */
"aXaXaXaXaXaXaXaXaXaXaXaXaXaXaXaXaXaXaXaXaXaXaXaXaXaXaXaXD.oXoXqXqXqXqX8XaXaXaXaXaXaXaXaXaXaXaXaXaXaXaXaXaXaXaXaXaXaXaXaXaXaXaXaX",
"aXaXaXaXaXaXaXaXaXaXaXaXaXaXaXaXaXaXaXaXaXaXaXaXaXaXaXL.+X;X;XwX9XwXtX9X%XaXaXaXaXaXaXaXaXaXaXaXaXaXaXaXaXaXaXaXaXaXaXaXaXaXaXaX",
"aXaXaXaXaXaXaXaXaXaXaXaXaXaXaXaXaXaXaXaXaXaXaX8XrXiX&X(.=X4X<X&X1X>X4X&XX.L.$X#Xy.aXaXaXaXaXaXaXaXaXaXaXaXaXaXaXaXaXaXaXaXaXaXaX",
"aXaXaXaXaXaXaXaXaXaXaXaXaXaXaXaXaXaXaXaX#Xt.S.>X4X5X_.J.=X>X;X*X&X@XU.F.D d.5X4Xo.A [.3XaXaXaXaXaXaXaXaXaXaXaXaXaXaXaXaXaXaXaXaX",
"aXaXaXaXaXaXaXaXaXaXaXaXaXaXaXaXaXaX#X9X4X].( U.wXeXOXg.4X;XOX`.;X4XC.d.V p.eX&Xu o.&X*X7X8XaXaXaXaXaXaXaXaXaXaXaXaXaXaXaXaXaXaX",
"aXaXaXaXaXaXaXaXaXaXaXaXaXaXaXaXqX;X_._.4X1XP.` 1XwX_.' J.).(.A.J.u.z.z.p f.1XT p J.>X). XtX:XaXaXaXaXaXaXaXaXaXaXaXaXaXaXaXaXaX",
"aXaXaXaXaXaXaXaXaXaXaXaXaXaXaX[.OX*Xg.{.6X5X1X} f..XH.H s.J.).OXG.T X.S i S.u.5 7.}.9X<X*X6X1XY B.aXaXaXaXaXaXaXaXaXaXaXaXaXaXaX",
"aXaXaXaXaXaXaXaXaXaXaXaXaXyXeX`.G G X.{.*X*X{.r.z H.C.f g.`.4X4X).z.u.f k P.L Z ).<XeXeX6XK.f D `.2XaXaXaXaXaXaXaXaXaXaXaXaXaXaX",
"aXaXaXaXaXaXaXaXaXaXaXaXyX9X5XOXd.e ( P.{.{.U.z.i G 5 + i p ( #.V L z < < D 2 7.OX5X4XeX4XU e g.(.>X0XaXaXaXaXaXaXaXaXaXaXaXaXaX",
"aXaXaXaXaXaXaXaXaXaXaXuX9XF.k.U.OXp.f ' S.].].` % . . X X               X X . p H._.OX*Xp.f ) G.G.G.wX7XaXaXaXaXaXaXaXaXaXaXaXaX",
"aXaXaXaXaXaXaXaXaXaXuXeXY.l.Y.@X4X&XT 1 8.w.u O X & e G | 1 + + + & 1 ; ; ; % + 1 ' g.9.f 8.A.OX}.;XtX9XXXaXaXaXaXaXaXaXaXaXaXaX",
"aXaXaXaXaXaXaXaXaX3X9X*XY.@X1X5XwX>XG.r i < O ; K 7.G.}.e.G r % ; p ' 8.p.j.s.G 5 < Z p  .`.6XeX9X9XeX9X4XL.aXaXaXaXaXaXaXaXaXaX",
"aXaXaXaXaXaXaXaXaXG.f.z.F.@X*X&X<X;XA.3 X % B J.}.J.=X>X(.J.f.i G s.).}.+X;XOX].].X.1 * g.<XtX9X9X>X4X<X>Xf.g aXaXaXaXaXaXaXaXaX",
"aXaXaXaXaXaXaXaX[.) 1 k C.;X@XU.+X`.V @ + G d.4X6X1X>X&X XH.p.t ' H._.}.+XOX X{.S.C.U + f (.4XOX_. X&X].T V Z.3XaXaXaXaXaXaXaXaX",
"aXaXaXaXaXaXaXaXU.#.< ; ( P. XK.d.f + & 1 | e.P.1X@XQ.r.z % X   X % < | d.s.9.( X.w.t a 5 5 | e.e.H.} u j OX4XXXaXaXaXaXaXaXaXaX",
"aXaXaXaXaXaXaX0.#.Z * a J ' A.G.J @ & f B p X.w.z.O.w O . . O . # # X . ; a L } L f  .g.k ; 1 7. .( L z i #. .D aXaXaXaXaXaXaXaX",
"aXaXaXaXaXaXaXa.V - @ T <XJ.H a * ; e u } } T u.j @ O O , 4 x * c W n 4 - + * j u J A.p.k ( i i a T ].9.; % < ' I.aXaXaXaXaXaXaX",
"aXaXaXaXaXaXrX6Xg.' i p f.}.X.+ * V D U U u.#.; X # 0 x *.~ / 8 Q ,.+.E I l @ X 1 G.(.H.].U.S.t a OXC.k k T | d.&X3XaXaXaXaXaXaX",
"aXaXaXaXaX3X6X;X`.(.o.( H H ; * J g.g.#.` } 3 O * x 4.2.l.x N w W ^ c Q ,.m.I 2 * | G.{.{.&X}.f.p G  .p.G.e.J.(.A.:XaXaXaXaXaXaX",
"aXaXaXaXaXXX6XwX6X4XS.@.} } % a (.+X_.f.u.6 X - n ^ 5.3.c.=.1.w m / / :.2.W.,.+.d e | J.S. XOXJ.J T _.K.`.J.OX6X<X4X%XaXaXaXaXaX",
"aXaXaXaXaXJ.5XwX6XeXK.d.r.6 & p.=X+X Xu.u O O 0 W z :.2.2.3.x.x b 1.2.3.3.b.P 2.^ n 6 e.j.}._.h.7.f  .}.OX).OX4X6X&XL.aXaXaXaXaX",
"aXaXaXaXB.8.g._.=X=X).*XH.- 5 ).+X}._.T @ @ * W <.-.4.2.M.l.3.x v c.b.l.l.^.m.M.+.^ 9 i s.s.p.h.7.G e.4X=X`._.OX}.p.{ aXaXaXaXaX",
"aXaXaXaXD.i 5 ) h.G.J.+X` + 1 H G.A.#.- O > 9 ,.b.l.3.<.Q.l.-.w v v.N.c.c.^.M.N.O.^ E 9 ' H g.).G i ) =X+X}.G. .i 5 B aXaXaXaXaX",
"aXaXaXaX:Xo.D H ) H ' | e + e V ' 9.j . @ w l k.;.;.*.;.^.3.:.9 m v.l.v.b.^.M.v.O./ / x u w.d.' e e B h.h.Z 5 < 1 H G.D.aXaXaXaX",
"aXaXaXaX-XU.S.C.f.g. .e * 5 Z U U D % . > E x @.,.l.=.-.^.v.2.0 Q c.c.M.b.^.m.c.+.;.-.b 9 V L L L #.J r B | s.7.p.g.G.V.aXaXaXaX",
"aXaXaXaX;XOX`.].H.+X;XX.2 ) OX4XU.S X @ x =.c ^ @.n.b.;.Q.v.2.0 %.M.m.v.x.!.c.c.-.,.:.N w t d.z.C.S.} e.6X*XS.s.j.)._.V.aXaXaXaX",
"aXaXaXaX'.j.OX&X].9X>X$.z f.9XtX5Xr.O 2 ^ x.n ^ ~ n.N.+.Q.v.x.w %.m.v.v.x./.!.N.+.+.2.^ w z P.C.u.#.( u.5X>X Xe.h.s.e.[ aXaXaXaX",
"aXaXaXaX'.h.+X}.8.*X*X$.S .XwXwXwXX.O 2 I l.n ~ ^ -.=.O.Q.v.c.x *.c.v.c.n./.^.~./ O.2.M c s S.F.u.w.w.d.9XtXK.J e.8.f...aXaXaXaX",
"aXaXaXaXJ.8.).s.V #.( n D z.C..X.Xz O , :.2.c ^ O.E ~ O.W.5.4.w *.x.c.b.b./.~.N.+.O.3.=./ 0 w.u.X.#.u.' p.p.Z r a p ' ..aXaXaXaX",
"aXaXaX|.| 8.G.s.'  . .#.L o.p.H.S.z < t P P P @.O.~ $.$.$.d.+.w *.F.r.@.z.$.O.O.W I E n Y j 9.w.p.d.} ' 8. .' J ) J H o.D.aXaXaX",
"aXaXwX>XC.4XpXpX4X6X5X4XX.V G.4X*X( r Z ` L L X.9.d.e.s.g.K n w -.d.j.K d.P Y ( ' G Y ' ) J P._.}.s.p.4X<X>X;X=X9XeX{.{.&XV.aXaX",
"aXaX`.g.#.}.9X<XOX+X;X).j ; | J.<XX.r G L U ' 9.' z ( X.p e s w ;.} r e ) > * U | T S V ) T @X&Xf.V | =XOX(.J.).OXOX}.d.p.t.aXaX",
"aXaXa.8.H T j.d.e.s.f.B * & e A.6X#.< i u 6 3 u 6 > 0 9 4 8 ~ n 3.=.x x c d 4 d 9 6 6 e e f +XJ.' H G J  .| | 7.e.e.G. .G [ aXaX",
"aXaXaX7 ; & & ; & & & + + ; k A.&XT # > 9 n 9 k.@.^ :.~ 2.>.c.P c.N.c.m.2.E.M.m.%.~ =.c , 3 J.d.s.8.B % & & % % % & & & = aXaXaX",
"aXaXaXI.(.h.K e.8.8.T u + % & r B 3 # w %.~ d b.<.1.x.O.c.5.m.I b.!.N.N.2.!.^.^.4.:.T.5.~ 2 Z G k i r p 8.7.8. .' 7.s.p.aXaXaXaX",
"aXaXaX3X<XOX8.d.S.].K.L + 5  .' 7.z # 0 ! Q 4 l x l.W.@.m.T.M.W m.~.!.N.l.^.^.~.4.:.M.c./ t s.p.g.d.J Z d.d.u.w.| s.;X'.aXaXaXaX",
"aXaXaXaX..V 1 5 f D z - + ) {. X_.( @ 8 Q %.4 s s <.W.-.R.R.M.~ m.~.!.W.b./.^.E.2.:.N.3.W i <X<X>X Xf.G B a i p 5 k V _ aXaXaXaX",
"aXaXaXaX'.j.7.B d.u.J 3 % | ].{._.L @ 4 N %., j s :.n.;.R.R.N.~ m.~.!.M.b./.^.E.1.,.n.<.P i 5X5X*XOXd.8.J.j.;X@X .K.s.V.aXaXaXaX",
"aXaXaXaXeX+Xp.V 9. .V ; % ) g.d.7.p O , E ! 4 l s 2.b.;.R.R.E.^ v.~.E.v.b./.~.!.1.;.b.;.I a ).;X;XH. .o.+X=XeX>XG.9XwX:XaXaXaXaX",
"aXaXaX3XG.G e e i ; 5 < & V H T J B O 3 } W , 2 ` <.N.-.R.R.!.O.v.!.E.v.c.^.!.M.O.@.l.r.P f `. X(.e.u.S.9X<X&Xf.o.9X6XK.aXaXaXaX",
"aXaXaXaXZ ' e.A.S.o.5 - & p B V H i O , 9 M , P ~ I W.,.R.R.E.+.m.^.!.v.c.~.T.5.E @.x.n n u e.p.) w.#.X.K.X.S t B C.G.{ aXaXaXaX",
"aXaXaX3XeXpXeXeXtXtX@XY 1 7.h.8.h.' O 8 Q ! 8 =.c P W.:.T.T.E.-.M.^.!.M.m.~.c.4.E ;.m./ +.z `.j.G.H.P.z.S.' t < 3 w.f.9.aXaXaXaX",
"aXaXaXuXwX&X&XOX@X*XS.j ; J s.h.h.) O 0 ! Q w *., 0 n.;.R.R.R.-.M.^.!.E.c.E.c.:.W 2.M.*.O.s `.}.}.f.o.p.<X4XOX_.f.}.+X'.aXaXaXaX",
"aXaXaXI.s.#. .' 9.z.#.u % H H.`.(.J O 0 ! N x *.> 9 b.;.T.T.R.O.b.^.~.m.3.^.N.x./ l.N.=.M 6 J.;X_.e.' #.).&X*X`.OX`.G.a.aXaXaXaX",
"aXaXaXaXJ J U z j t 3 @ + p A.U.J.k O 0 ! N 0 ~ 4 9 k.-.6.6.R./ x.~.R.5.c.^.N.x./ 3.m.=.n 2 d.).p.X.H p | e. .' ' J B g aXaXaXaX",
"aXaXaXaXA t 6 2 3 < 2 * + 5 p.S.w.f @ w Q N 4 > > 6 O./ 5.6.R.^ 3.6.5.>.l.^.M.3.^ :.2.+.M u s.f.s.9.H V B G G T T i 6 aXaXaXaXaX",
"aXaXaX8XH.#.C.w.U.$.l 6 * k C.w.g.j @ 0 Q ! 6 < t 6 I ^ 6.6.T.W =.6.4.4.=.W.M.1.^ O.-.^ M s ).G.A.9.G #.wX9X>X>XpXwXC.0.aXaXaXaX",
"aXaXaXI.G.).+X_.4X{.F.n * f p.G.*X` O 0 %.Q 9 k B s ,.+.6.5.v.M =.R.6.4.:.M.m.3./ ~ -.^ x u >X+XJ. .B o.tXwX>X<XtXeXf...aXaXaXaX",
"aXaXaXoXj.(.+X;X6X*X.XM - p ( d.9Xr.X t I m w I 6 I Q.<.6.4.>.x 1.~.M.>.:.c.l.3.*.^ ;.^ P j 5X;Xp.p k G eXpX;XOX4X4X(...aXaXaXaX",
"aXaXaXI.p.s.h.).>X*X@XY * e u S.6XY . * 0 m w :.l.b.Q.<.6.&.&.b 1.~.R.>.*.3.2.=.+.O.-.^ / z >X<X .t k L 4XeX>X X`.`.(.a.aXaXaXaX",
"aXaXaX%XJ.p.A.+X4XwX*X` ; T w.*X1XL . > b b 8 *.n.b.Q.l.6.&.>.c =.!.R.>.*.c.x.1.%.^ *.%.+.L 1X1Xd.L V ( 9X9X X`.(.j.J.H.aXaXaXaX",
"aXaXaX%X).OX5X6X4X>X&X@.2 G #.u.H.( X > v b > Q l.x.^.<.5.&.>.x %.R.v.=.-.W.W.m.-.~ =.*.+.S &X X} D z ( ;X}.j.s.g.J.J.A.aXaXaXaX",
"aXaXaX%X+X X&X*X>X&X*Xk.s k J #.' u X > v N > *.<.l.Q.^ *.&.4.w W m.5.! 1././.N.-.^ :.*./ d ' } T S Y U B f i r a i k G aXaXaXaX",
"aXaXaX%X(.e.u.C.f.C. X$.j g.U.U.d.j O , ! %., ;.2.l.N.P / 1.5.w I m.:.N 2.~.R.M.-.E / =./ j g.9.} } u.C.A.f.f.( T  .f f aXaXaXaX",
"aXaXaX%XJ.o.U ( } X.f.Y 6 ( w.C.9.6 O > ! Q , ,.,.l.n.P O.1.x.x W c./ m O.m.m.x.-.W / -.E u d.9.} X.( X.).A.+X).e.).9.o.aXaXaXaX",
"aXaXaXaXV e < 2 2 2 5 * % ; a D B 2 ; t s d S ` ( L 8.7.U 8.~ x ^ @.( U p.Y P ` P L d s Z r D U ' T V G  . .) B H 9.#.F aXaXaXaX",
"aXaXaXB.f.B ; ; 2 ( C.U.} e Z ' g.X.5 C S t B K D l U 7.e.C s w / X.p.K 7.s l B C a j S K D OXK.w.'  .4X&X].#.6 5 | #.{ ] aXaXaX",
"aXaXyXeXwX).| } d.].&X<XF.3 | 8.j.( 1 C 5 e C K t # e C 1 1 9 0 ^ Y 5 e B # @ a G a 2 3 C B  XJ.f.| A.pXpXtX;X^ l J.d.H.S.i.aXaX",
"aXaXiXtX<XOXe.Y {.;X@X;XS.< G T J.U % < < 2 - 9 l x M s 9 0 W d O.-.M w w 8 4 6 4 > > - e 5 J.s.#.D K.9X<X4X4Xz.f w.u.C.].[.aXaX",
"aXaX,X;XS.w.U } ].;X X Xr.* & B (.U O # d / 0 ! N.!.E.-.<.+.<.l ~ b.b.%.E Q :.! N M *./ ~ t G.d.k t d.(.J.J.).C.L D L u.H.V.aXaX",
"aXaXy.( s ; 6 ` } ' H J 3 ; 1 | p.f O - L W x :.3.=.M.-.x.*.;.d E 3.1.N x x 1.3.%.E ,.I ,.u  .p.o.9.) T | D D z t 6 6 t 3 g aXaX",
"aXaX] z s 6 S ( L e D d.z * r p.G.V O - 4 N w :.b 4 ! O.3.*.:.0 b 2.-.m 4 8 =.5.! b E M ,.f g.U.f.#.X.K.{.` S L L Y s 3 2 R aXaX",
"aXaXL.X.Y u L o.Y ( j.OXr.- B g.+X( O , b N v c.8 # 8 E *.%.2.x x E x m # - N *.%.b ! *.<.S *X XC.( f.1X*Xz.j z z u < 3 } q.aXaX",
"aXaXXX{.S.d.S Y ( p.j.`.} > 5 |  X( o * : 8 q Q $ = = q m Q =.q 8 b v v # $ 7 m ~ b Q Q ! l ].j.H e e.].H.d.t ; 5 S ( #.z...aXaX",
"aXaX..P.P.].} Y u Z #.d.` 7 = h q.g aXaXaXaXaXaXaXaXaXaXaXaXaXaXaXaXaXaXaXaXaXaXaXaXaXaXaXaX0.[ h h ..H.f.Z < r f o.C.k.$.h aXaX",
"aXaXaX0.aXi._ g y y y 7 h aXaXaXaXaXaXaXaXaXaXaXaXaXaXaXaXaXaXaXaXaXaXaXaXaXaXaXaXaXaXaXaXaXaXaXaXaXaXaX] aXaXR g g 0._ [ aXaXaX"
};
