/* XPM */
static char *result[] = {
/* columns rows colors chars-per-pixel */
"64 64 182 2 ",
"   c #070707",
".  c #0E0A0A",
"X  c #0E0E0E",
"o  c #141212",
"O  c #181717",
"+  c gray10",
"@  c #1D1C1D",
"#  c #1F1D1F",
"$  c #3C0C0E",
"%  c #2C0F10",
"&  c #241414",
"*  c #261718",
"=  c #201F1F",
"-  c #361111",
";  c #3F1516",
":  c #371B1C",
">  c #3D1B1D",
",  c #2B1F20",
"<  c #222221",
"1  c #262123",
"2  c #252525",
"3  c #282828",
"4  c #2A2A2A",
"5  c #2C2B2B",
"6  c gray18",
"7  c #372324",
"8  c #3B2120",
"9  c #3E2526",
"0  c #362829",
"q  c #352C2C",
"w  c #3B2E2F",
"e  c #363435",
"r  c #3A3A38",
"t  c #3B3A39",
"y  c #3E3E3D",
"u  c #461513",
"i  c #4F1215",
"p  c #4A1618",
"a  c #4C1F1F",
"s  c #6A1B1F",
"d  c #422626",
"f  c #4A2223",
"g  c #482A2C",
"h  c #562426",
"j  c #5E2224",
"k  c #502B2C",
"l  c #483334",
"z  c #4E3E3D",
"x  c #563031",
"c  c #573735",
"v  c #5F3D3F",
"b  c #642327",
"n  c #602527",
"m  c #772428",
"M  c #603737",
"N  c #6E3633",
"B  c #703331",
"V  c #714720",
"C  c #6D512C",
"Z  c #7E733B",
"A  c #454544",
"S  c #4C4B47",
"D  c #5E4344",
"F  c #5F4B4D",
"G  c #505050",
"H  c #565656",
"J  c #595A5A",
"K  c #5D5E5E",
"L  c #714446",
"P  c #685655",
"I  c #725255",
"U  c #755455",
"Y  c #726B49",
"T  c #616263",
"R  c #6A6B6A",
"E  c #7F6062",
"W  c #7A6164",
"Q  c #707071",
"!  c #747575",
"~  c gray48",
"^  c #7E7E7F",
"/  c #83272B",
"(  c #8A2629",
")  c #8A2D30",
"_  c #863A37",
"`  c #843538",
"'  c #913339",
"]  c #9F3A3E",
"[  c #855B34",
"{  c #A05B32",
"}  c #88643E",
"|  c #9A7339",
" . c #B0722E",
".. c #863D40",
"X. c #854544",
"o. c #9A474B",
"O. c #825357",
"+. c #885856",
"@. c #9B585C",
"#. c #AB454B",
"$. c #A74E52",
"%. c #BC4C50",
"&. c #A46844",
"*. c #AA7849",
"=. c #8B5F61",
"-. c #96696C",
";. c #A06562",
":. c #B86D72",
">. c #AB767B",
",. c #C05B5E",
"<. c #CC6569",
"1. c #DA6B70",
"2. c #EE777C",
"3. c #978037",
"4. c #B8842F",
"5. c #B18A46",
"6. c #988567",
"7. c #BEA071",
"8. c #C8B57F",
"9. c #967B81",
"0. c #D17F84",
"q. c #848586",
"w. c #878989",
"e. c #8C8D8E",
"r. c #929294",
"t. c #979898",
"y. c #9B9C9E",
"u. c #AE8F94",
"i. c #9AA1A8",
"p. c #A2A1A0",
"a. c #A4A5A6",
"s. c #A7A9AB",
"d. c #AEAEAF",
"f. c #BAA3A9",
"g. c #ACB1B6",
"h. c #B4B4B5",
"j. c #B4B8BB",
"k. c #B8BBBF",
"l. c #EB868B",
"z. c #E59094",
"x. c #EF9BA0",
"c. c #D0B1B7",
"v. c #FBA1A5",
"b. c #E7AFB4",
"n. c #EEB9BE",
"m. c #DAC994",
"M. c #E4DB9D",
"N. c #D6C7A2",
"B. c #F0ECAE",
"V. c #FDF7B0",
"C. c #FEF9BD",
"Z. c #BAC0C6",
"A. c #BDC3C9",
"S. c #C0C6CC",
"D. c #CAC7CF",
"F. c #C5CBD1",
"G. c #C5CDD4",
"H. c #C8CFD7",
"J. c #CBD3DB",
"K. c #ECC3C7",
"L. c #E9CED2",
"P. c #F1EECE",
"I. c #FEF9C4",
"U. c #FEFBCE",
"Y. c #FDFBD7",
"T. c #FFFCD5",
"R. c #FFFBD8",
"E. c #FDFDD8",
"W. c #FEFDDF",
"Q. c #CFD8E2",
"!. c #D3DDE6",
"~. c #D6E1EC",
"^. c #DBE6F0",
"/. c #DEEAF4",
"(. c #DEECF9",
"). c #E7E4EF",
"_. c #FDFBE0",
"`. c #FCFDE8",
"'. c #E0EDF6",
"]. c #E1EEFC",
"[. c #E4F1FA",
"{. c #536882",
/* pixels */
"{.{.{.{.{.{.{.{.{.{.{.{.{.{.{.{.{.{.{.{.{.{.{.{.{.{.{.{.{.{.{.{.{.{.{.{.{.{.{.{.{.{.{.{.{.{.{.{.{.{.{.{.{.{.{.{.{.{.{.{.{.{.{.{.",
"{.{.{.{.{.{.{.{.{.{.{.{.{.{.{.{.{.{.{.{.{.{.{.{.{.{.{.{.{.{.{.{.{.{.{.{.{.{.{.{.{.{.{.{.{.{.{.{.{.{.{.{.{.{.{.{.{.{.{.{.{.{.{.{.",
"{.{.{.{.{.{.{.{.{.{.{.{.{.{.{.{.{.{.{.{.{.{.{.{.{.{.{.{.{.{.{.{.{.{.{.{.{.{.{.{.{.{.{.{.{.{.{.{.{.{.{.{.{.{.{.{.{.{.{.{.{.{.{.{.",
"{.{.{.{.{.{.{.{.{.{.{.{.{.{.{.{.{.{.{.{.{.{.{.{.{.{.{.{.{.{.{.{.{.{.{.{.{.{.{.{.{.{.{.{.{.{.{.{.{.{.{.{.{.{.{.{.{.{.{.{.{.{.{.{.",
"{.{.{.{.{.{.{.{.{.{.{.{.{.{.{.{.{.{.{.{.{.{.{.{.{.{.{.{.{.{.{.{.{.{.{.{.{.{.{.{.{.{.{.{.{.{.{.{.{.{.{.{.{.{.{.{.{.{.{.{.{.{.{.{.",
"{.{.{.{.{.{.{.{.{.{.{.{.{.{.{.{.{.{.{.{.{.{.{.{.{.{.{.{.{.{.{.{.{.{.{.{.{.{.{.{.{.{.{.{.{.{.{.{.{.{.{.{.{.{.{.{.{.{.{.{.{.{.{.{.",
"{.{.{.{.{.{.{.{.{.{.{.{.{.{.{.{.{.{.{.{.{.{.{.{.{.{.{.{.{.{.{.{.{.{.{.{.{.{.{.{.{.{.{.{.{.{.{.{.{.{.{.{.{.{.{.{.{.{.{.{.{.{.{.{.",
"{.{.{.{.{.{.{.{.{.{.{.{.{.{.{.{.{.{.{.{.{.{.{.{.{.{.{.{.{.{.{.{.{.{.{.{.{.{.{.{.{.{.{.{.{.{.{.{.{.{.{.{.{.{.{.{.{.{.{.{.{.{.{.{.",
"{.{.{.{.{.{.{.{.{.{.{.{.{.{.{.{.{.{.{.{.{.{.{.{.{.{.{.{.{.{.{.{.{.{.{.{.{.{.{.{.{.{.{.{.{.{.{.{.{.{.{.{.{.{.{.{.{.{.{.{.{.{.{.{.",
"{.{.{.{.{.{.{.{.{.{.{.{.{.{.{.{.{.{.{.{.{.{.{.{.{.{.{.{.{.{.{.{.{.{.{.{.{.{.{.{.{.{.{.{.{.{.{.{.{.{.{.{.{.{.{.{.{.{.{.{.{.{.{.{.",
"{.{.{.{.{.{.{.{.{.{.{.{.{.{.{.{.{.{.{.{.{.{.{.{.{.{.{.{.{.{.{.{.{.{.{.{.{.{.{.{.{.{.{.{.{.{.{.{.{.{.{.{.{.{.{.{.{.{.{.{.{.{.{.{.",
"{.{.{.{.{.{.{.{.{.{.{.{.{.{.{.{.{.{.{.{.{.{.{.{.{.{.{.{.{.{.{.{.{.{.{.{.{.{.{.{.{.{.{.{.{.{.{.{.{.{.{.{.{.{.{.{.{.{.{.{.{.{.{.{.",
"{.{.{.{.{.{.{.{.{.{.{.{.{.{.{.{.{.{.{.{.{.{.{.{.{.{.{.{.{.{.{.{.{.{.{.{.{.{.{.{.{.{.{.{.{.{.{.{.{.{.{.{.{.{.{.{.{.{.{.{.{.{.{.{.",
"{.{.{.{.{.{.{.{.{.{.{.{.{.{.{.{.{.{.{.{.{.{.{.{.{.{.{.{.{.{.{.{.{.{.{.{.{.{.{.{.{.{.{.{.{.{.{.{.{.{.{.{.{.{.{.{.{.{.{.{.{.{.{.{.",
"{.{.{.{.{.{.{.{.{.{.{.{.{.{.{.{.{.{.{.{.{.{.{.{.{.{.{.{.{.{.{.{.{.{.{.{.{.{.{.{.{.{.{.{.{.{.{.{.{.{.{.{.{.{.{.{.{.{.{.{.{.{.{.{.",
"{.{.{.{.{.{.{.{.{.{.{.{.{.{.{.{.{.{.{.{.{.{.{.{.{.{.{.{.{.{.{.{.{.{.{.{.{.{.{.{.{.{.{.{.{.{.{.{.{.{.{.{.{.{.{.{.{.{.{.{.{.{.{.{.",
"{.{.{.{.{.{.{.{.{.{.{.{.{.{.{.{.{.{.{.{.{.{.{.{.{.{.{.{.{.{.{.{.{.{.{.{.{.{.{.{.{.{.{.{.{.{.{.{.{.{.{.{.{.{.{.{.{.{.{.{.{.{.{.{.",
"{.{.{.{.{.{.{.{.{.{.{.{.{.{.{.{.{.{.{.{.{.{.{.{.{.{.{.{.{.{.{.{.{.{.{.{.{.q {.{.{.{.{.{.{.{.{.{.{.{.{.{.{.{.{.{.{.{.{.{.{.{.{.{.",
"{.{.{.{.{.{.{.{.u ; 1 7 w z z z z w 9 7 d 8 a u u $ $ a a a a a a a a $ ; w 8 $ u $ $ ; d g x x f > > > 9 d ; $ {.{.{.{.{.{.{.{.",
"{.{.{.{.{.N B m ( ) ) ' o.o.o.....B m p p f h p p p p h h h h h h h h p p > k ' ] ] ) m ` ..` ....o.] ' ) ) ) m B V } P.Y.Y.E.R.",
"{.{.{.{._ | X.....o.<.1.,.$.o.o.#.%.] - . . . o * o o * * * * * * * * * * f B B h h : , , , 5 w , l c c g > > f c |  .7.U.U.U.T.",
"{.{.{.u [ z * : B X.,.#...o.:.0.z.l.l.<.X.c 7 * @ o O < < < < < = = , l L c * .     + A A A A J y A G G y 5 < < 2 S 4. .M.C.C.I.",
"{.{.{.b c y w @.2.2.<.m * O , w z z D D D E E D D D U O.O.O.O.O.O.L U v * . X X .   . J ! ! Q ~ Q R Q R T G A A y S 3. .8.C.C.I.",
"{.{.{./ D K z @.l.l.1.f X O + = = < = + 2 e S A y l z F P P P P P S @ X X X o X X .   y q.q.q.w.w.q.e.e.q.Q K H G H Y 4.5.V.C.C.",
"{.{.{./ U K -.v.v.v.:.* X O @ < 2 2 2 + 6 A K K H S A H T T R R R A o O O O O o o X   5 w.e.e.e.t.e.r.r.e.q.~ ! Q R ~ 5. .B.I.I.",
"{.{.{.) E T >.v.v.x.+.X X + = 2 3 4 4 = e H R ! R R K R ~ ~ ~ ~ ~ S 2 3 3 3 < + o X   = r.p.p.p.s.a.s.s.s.y.e.q.^ ~ q.6.{ m.T.T.",
"{.{.{.( 9.i.u.n.n.b.U . X + = 2 3 5 5 2 J ~ q.r.e.e.q.w.t.t.t.t.y.K 4 5 5 4 3 2 @ X   O y.k.j.g.h.h.h.k.h.h.s.p.y.r.r.6.{ 7.W.W.",
"{.{.$ ( f.H.k.).).D.F   X + < 2 3 5 6 2 e.H.H.J.J.J.G.G.J.J.J.J.Q.~ 5 6 5 4 3 2 < + . . s.^.~.Q.Q.!.Q.!.J.H.A.k.h.g.d.d.;.;.`.{.",
"{.{.% ( f.G.G.[.[.J.G   X + < 2 3 5 6 3 i.[.].[.[.[.[.].[.[.[.[.[.q.5 6 5 4 3 2 < @ o X g.[.].].].].].[.[.'./.^.!.!.J.H.>.b {.{.",
"{.# , ( f.S.S.).).D.G . . + < 2 3 5 6 3 i.'.^./.'././././.'.'.'.[.q.5 6 5 4 3 2 < @ O o s.^.~.~.~.^././.'.'./././.(.]./.h.W {.{.",
"{.{.0 ( 9.r.9.u.b.x.D . X @ < 2 3 5 6 5 w.S.A.S.F.S.S.A.A.F.G.G.H.! 5 6 5 4 3 2 < @ O O e.k.j.j.h.Z.D.S.F.F.F.S.A.F.J.J.p.I {.{.",
"{.{.& ( -.~ U -.x.z.v X . + < 2 3 5 6 6 ~ s.s.d.j.g.g.s.s.h.j.j.j.R 5 6 5 4 3 2 < @ O O q.g.d.d.d.j.A.Z.S.S.A.k.k.A.G.G.u.I {.{.",
"{.# * ( u.g.c.L.L.c.F o . O < 2 3 4 5 6 e.G.F.F.J.H.G.F.F.G.J.J.J.~ 5 6 5 4 3 2 < @ O + a.!.Q.Q.Q.!.^.^.^.^.^.^.~.^./.^.h.W {.{.",
"{.{.7 ( f.G.F.].].H.G o . O < 2 3 4 5 6 i.].(.(.].'.'.(.(.'.'.[.[.q.5 6 5 4 3 2 < @ O O g.[.].].].].[.[.[.[.[.'.^.^.!.J.u.N {.{.",
"{.{.; ( f.J.A./.'.F.G o X o < 2 3 4 5 6 i.[.(.'.'.[.'.].'.'.[.[.[.q.5 6 5 4 3 2 < + O O g.'.^.~.~.~.~.~.Q.!.J.F.Z.k.h.d.;.+.{.{.",
"{.{.{.( 9.g.u.K.K.c.F o o o < 2 3 4 5 5 w.A.Z.Z.S.F.S.S.Z.Z.S.F.F.! 5 6 5 4 3 2 = + O + y.F.A.j.j.j.k.k.h.k.h.d.s.a.p.t.&.7.T.R.",
"{.{.{.( U Q >.v.v.x.O.o o o < 2 3 3 4 4 G Q Q Q ~ e.q.^ ^ ~ w.e.r.K 6 6 5 4 3 2 = + o 3 a.d.a.a.a.a.s.d.s.h.h.d.p.t.e.6.{ 8.T.T.",
"{.{.{./ F K >.v.v.v.;.* O X @ < < < 2 < e A S G H Q Q T T J R ~ ~ G 5 6 5 3 3 < @ + o 5 a.d.p.p.p.p.y.a.y.p.y.t.e.q.~ 5. .M.C.I.",
"{.{.{.s D K U 0.l.x.:.: o X O @ @ @ @ = 5 e e e e S G A A e A H J A 3 3 3 2 2 = @ O o y y.t.w.w.w.q.q.e.w.e.e.w.Q T Y 4.4.B.V.C.",
"{.{.{.b l H l X.1.2.<.n o X X O O = 2 e e w l l v v =.=.=.+.+.=.-.U v 9 = = = @ O O o G e.q.^ ~ ~ ! Q ~ Q R ! Q T H Z 4.7.V.V.V.",
"{.{.{.; C 5 , M $.$.,.` f : x O.-.=.-.>.;.=.U v c 9 l l g l g g l l v L v , O O O o = R ~ ~ T J G G S G J G K K G y 3. .m.V.V.V.",
"{.{.{.{.C [ : : f B $.%.] ] #.,.<.1.<.L 9 * X o = o + = + O + o + = @ * k L x 7 * + e G G G y 5 2 < < 4 l 5 y y e C  .*.B.I.I.I.",
"{.{.{.{.a [ X.' ] #.%.%.%.] ( m ` ` B p : : % % : % % : : - - - % - > : > > c o.o.@.L v v v M k n ` ` ` X...X.X.[ | &.m.U.U.U.U.",
"{.{.{.{.{.u 8 b s j n n n n n n M M M x k k j i i i i j j j i j i i i j j g l N _ _ _ X.......` m m m m B B j N V } N.E.Y.R.T.T.",
"{.{.{.{.{.{.{.{.{.{.# 0 1 1 1 1 1 r r t q {.{.{.{.{.{.{.{.{.{.{.{.{.{.{.{.0 {.{.{.{.{.{.q 0 0 0 0 & & & 1 # {.{.{.{.{.{.{.{.{._.",
"{.{.{.{.{.{.{.{.{.{.{.{.{.{.{.{.{.{.{.{.{.{.{.{.{.{.{.{.{.{.{.{.{.{.{.{.{.{.{.{.{.{.{.{.{.{.{.{.{.{.{.{.{.{.{.{.{.{.{.{.{.{.{.{.",
"{.{.{.{.{.{.{.{.{.{.{.{.{.{.{.{.{.{.{.{.{.{.{.{.{.{.{.{.{.{.{.{.{.{.{.{.{.{.{.{.{.{.{.{.{.{.{.{.{.{.{.{.{.{.{.{.{.{.{.{.{.{.{.{.",
"{.{.{.{.{.{.{.{.{.{.{.{.{.{.{.{.{.{.{.{.{.{.{.{.{.{.{.{.{.{.{.{.{.{.{.{.{.{.{.{.{.{.{.{.{.{.{.{.{.{.{.{.{.{.{.{.{.{.{.{.{.{.{.{.",
"{.{.{.{.{.{.{.{.{.{.{.{.{.{.{.{.{.{.{.{.{.{.{.{.{.{.{.{.{.{.{.{.{.{.{.{.{.{.{.{.{.{.{.{.{.{.{.{.{.{.{.{.{.{.{.{.{.{.{.{.{.{.{.{.",
"{.{.{.{.{.{.{.{.{.{.{.{.{.{.{.{.{.{.{.{.{.{.{.{.{.{.{.{.{.{.{.{.{.{.{.{.{.{.{.{.{.{.{.{.{.{.{.{.{.{.{.{.{.{.{.{.{.{.{.{.{.{.{.{.",
"{.{.{.{.{.{.{.{.{.{.{.{.{.{.{.{.{.{.{.{.{.{.{.{.{.{.{.{.{.{.{.{.{.{.{.{.{.{.{.{.{.{.{.{.{.{.{.{.{.{.{.{.{.{.{.{.{.{.{.{.{.{.{.{.",
"{.{.{.{.{.{.{.{.{.{.{.{.{.{.{.{.{.{.{.{.{.{.{.{.{.{.{.{.{.{.{.{.{.{.{.{.{.{.{.{.{.{.{.{.{.{.{.{.{.{.{.{.{.{.{.{.{.{.{.{.{.{.{.{.",
"{.{.{.{.{.{.{.{.{.{.{.{.{.{.{.{.{.{.{.{.{.{.{.{.{.{.{.{.{.{.{.{.{.{.{.{.{.{.{.{.{.{.{.{.{.{.{.{.{.{.{.{.{.{.{.{.{.{.{.{.{.{.{.{.",
"{.{.{.{.{.{.{.{.{.{.{.{.{.{.{.{.{.{.{.{.{.{.{.{.{.{.{.{.{.{.{.{.{.{.{.{.{.{.{.{.{.{.{.{.{.{.{.{.{.{.{.{.{.{.{.{.{.{.{.{.{.{.{.{.",
"{.{.{.{.{.{.{.{.{.{.{.{.{.{.{.{.{.{.{.{.{.{.{.{.{.{.{.{.{.{.{.{.{.{.{.{.{.{.{.{.{.{.{.{.{.{.{.{.{.{.{.{.{.{.{.{.{.{.{.{.{.{.{.{.",
"{.{.{.{.{.{.{.{.{.{.{.{.{.{.{.{.{.{.{.{.{.{.{.{.{.{.{.{.{.{.{.{.{.{.{.{.{.{.{.{.{.{.{.{.{.{.{.{.{.{.{.{.{.{.{.{.{.{.{.{.{.{.{.{.",
"{.{.{.{.{.{.{.{.{.{.{.{.{.{.{.{.{.{.{.{.{.{.{.{.{.{.{.{.{.{.{.{.{.{.{.{.{.{.{.{.{.{.{.{.{.{.{.{.{.{.{.{.{.{.{.{.{.{.{.{.{.{.{.{.",
"{.{.{.{.{.{.{.{.{.{.{.{.{.{.{.{.{.{.{.{.{.{.{.{.{.{.{.{.{.{.{.{.{.{.{.{.{.{.{.{.{.{.{.{.{.{.{.{.{.{.{.{.{.{.{.{.{.{.{.{.{.{.{.{.",
"{.{.{.{.{.{.{.{.{.{.{.{.{.{.{.{.{.{.{.{.{.{.{.{.{.{.{.{.{.{.{.{.{.{.{.{.{.{.{.{.{.{.{.{.{.{.{.{.{.{.{.{.{.{.{.{.{.{.{.{.{.{.{.{.",
"{.{.{.{.{.{.{.{.{.{.{.{.{.{.{.{.{.{.{.{.{.{.{.{.{.{.{.{.{.{.{.{.{.{.{.{.{.{.{.{.{.{.{.{.{.{.{.{.{.{.{.{.{.{.{.{.{.{.{.{.{.{.{.{.",
"{.{.{.{.{.{.{.{.{.{.{.{.{.{.{.{.{.{.{.{.{.{.{.{.{.{.{.{.{.{.{.{.{.{.{.{.{.{.{.{.{.{.{.{.{.{.{.{.{.{.{.{.{.{.{.{.{.{.{.{.{.{.{.{.",
"{.{.{.{.{.{.{.{.{.{.{.{.{.{.{.{.{.{.{.{.{.{.{.{.{.{.{.{.{.{.{.{.{.{.{.{.{.{.{.{.{.{.{.{.{.{.{.{.{.{.{.{.{.{.{.{.{.{.{.{.{.{.{.{.",
"{.{.{.{.{.{.{.{.{.{.{.{.{.{.{.{.{.{.{.{.{.{.{.{.{.{.{.{.{.{.{.{.{.{.{.{.{.{.{.{.{.{.{.{.{.{.{.{.{.{.{.{.{.{.{.{.{.{.{.{.{.{.{.{.",
"{.{.{.{.{.{.{.{.{.{.{.{.{.{.{.{.{.{.{.{.{.{.{.{.{.{.{.{.{.{.{.{.{.{.{.{.{.{.{.{.{.{.{.{.{.{.{.{.{.{.{.{.{.{.{.{.{.{.{.{.{.{.{.{."
};
