/* XPM */
static char *result[] = {
/* columns rows colors chars-per-pixel */
"64 64 236 2 ",
"   c #070707",
".  c #0C0B0B",
"X  c #0E0E0E",
"o  c #1A070A",
"O  c #151111",
"+  c #141313",
"@  c #181717",
"#  c gray10",
"$  c #1D1C1D",
"%  c #3C0C0E",
"&  c #2C0F10",
"*  c #241415",
"=  c #271415",
"-  c #26191A",
";  c #201D1F",
":  c #201F1F",
">  c #361111",
",  c #3D1516",
"<  c #371B1C",
"1  c #3D1B1D",
"2  c #2B1F20",
"3  c #222221",
"4  c #262123",
"5  c #252525",
"6  c #282828",
"7  c #2A2A2A",
"8  c gray17",
"9  c #2D2C2C",
"0  c gray18",
"q  c #372324",
"w  c #3B2120",
"e  c #3E2526",
"r  c #352728",
"t  c #342C2D",
"y  c #362D2E",
"u  c #3B2E2F",
"i  c #343334",
"p  c #3A3736",
"a  c #3A3A38",
"s  c #3B3A39",
"d  c #3E3E3D",
"f  c #471215",
"g  c #461614",
"h  c #4E1014",
"j  c #4F1215",
"k  c #451718",
"l  c #47191A",
"z  c #4F191C",
"x  c #4B1F1F",
"c  c #521619",
"v  c #5B1A1C",
"b  c #6A1B1F",
"n  c #5B1D20",
"m  c #422526",
"M  c #4A2223",
"N  c #472E2C",
"B  c #482A2C",
"V  c #562426",
"C  c #5E2426",
"Z  c #502B2C",
"A  c #4A3233",
"S  c #423839",
"D  c #4E3E3D",
"F  c #563031",
"G  c #573735",
"H  c #5F3D3F",
"J  c #632729",
"K  c #62282A",
"L  c #712125",
"P  c #722F2F",
"I  c #7F292D",
"U  c #6E2C32",
"Y  c #603737",
"T  c #683633",
"R  c #6E3733",
"E  c #743634",
"W  c #71471F",
"Q  c #4F4E32",
"!  c #704B2E",
"~  c #665C29",
"^  c #7E733B",
"/  c #454544",
"(  c #4C4B4A",
")  c gray31",
"_  c #5E4344",
"`  c #594A4E",
"'  c #525152",
"]  c #535456",
"[  c #595757",
"{  c #595A5A",
"}  c #5D5E5E",
"|  c #634C4C",
" . c #6F484B",
".. c #744042",
"X. c #685655",
"o. c #735152",
"O. c #725255",
"+. c #765658",
"@. c #726B49",
"#. c #755F61",
"$. c #616263",
"%. c #6A6B6A",
"&. c #7F6062",
"*. c #7F6268",
"=. c #707071",
"-. c #747575",
";. c #797977",
":. c #7A7B7C",
">. c #7E7D7E",
",. c #83272B",
"<. c #8A2629",
"1. c #83382F",
"2. c #8A2D30",
"3. c #843538",
"4. c #913339",
"5. c #993A3F",
"6. c #A53A3E",
"7. c #855B34",
"8. c #A05B32",
"9. c #88653E",
"0. c #9A7339",
"q. c #AB6D2A",
"w. c #B37631",
"e. c #863D40",
"r. c #883C40",
"t. c #854544",
"y. c #9B4448",
"u. c #8A594A",
"i. c #984C50",
"p. c #825357",
"a. c #87585A",
"s. c #8A5D5F",
"d. c #9B585C",
"f. c #AB454B",
"g. c #A74E52",
"h. c #BC4C50",
"j. c #A46844",
"k. c #AA7849",
"l. c #8B6264",
"z. c #8D676A",
"x. c #9F6C6F",
"c. c #90767D",
"v. c #A06562",
"b. c #BE6569",
"n. c #B56A6E",
"m. c #B96F74",
"M. c #AB767B",
"N. c #C05B5E",
"B. c #D26569",
"V. c #D26D72",
"C. c #E1696E",
"Z. c #ED777A",
"A. c #978037",
"S. c #B8842F",
"D. c #B18A46",
"F. c #988567",
"G. c #BD9E6A",
"H. c #C9B673",
"J. c #987D82",
"K. c #D17F84",
"L. c #EE7780",
"P. c #7E8083",
"I. c #848484",
"U. c #848688",
"Y. c #878989",
"T. c #8B8B8C",
"R. c #8D8E8F",
"E. c #929294",
"W. c #979898",
"Q. c #9B9C9E",
"!. c #AC878C",
"~. c #B38D94",
"^. c #AD9499",
"/. c #9AA1A8",
"(. c #A2A1A0",
"). c #A4A5A6",
"_. c #A7A9AB",
"`. c #AEAEAF",
"'. c #BAA3A9",
"]. c #ACB1B6",
"[. c #B4B2B3",
"{. c #B3B5B7",
"}. c #B4B8BB",
"|. c #B8BBBF",
" X c #E38387",
".X c #F78B91",
"XX c #E59094",
"oX c #C2A787",
"OX c #C7B48B",
"+X c #EF9BA0",
"@X c #D0B1B7",
"#X c #FBA1A5",
"$X c #E7AFB4",
"%X c #EEB9BE",
"&X c #DAC994",
"*X c #E4DB9D",
"=X c #D6C7A2",
"-X c #F0ECAE",
";X c #FDF7B0",
":X c #FEF9BD",
">X c #BAC0C6",
",X c #BDC3C9",
"<X c #C0C6CC",
"1X c #CAC7CF",
"2X c #C5CBD1",
"3X c #C5CDD4",
"4X c #C8CFD7",
"5X c #C9D2D9",
"6X c #CCD4DC",
"7X c #ECC3C7",
"8X c #E9CED1",
"9X c #E9CED3",
"0X c #F1EECE",
"qX c #FEF9C4",
"wX c #FEFBCE",
"eX c #FCFCD3",
"rX c #FDFBD7",
"tX c #FFFCD5",
"yX c #FFFBD9",
"uX c #FDFCDC",
"iX c #FEFDDF",
"pX c #CFD8E2",
"aX c #D3DDE6",
"sX c #D6E1EC",
"dX c #DBE6F0",
"fX c #DEEAF4",
"gX c #DEECF9",
"hX c #EBE1ED",
"jX c #FEFBE1",
"kX c #FBFDE8",
"lX c #E3E6F0",
"zX c #E0EDF6",
"xX c #E1EEFC",
"cX c #E3F0F9",
"vX c #E4F1FC",
"bX c #536882",
/* pixels */
"bXbXbXbXbXbXbXbXbXbXbXbXbXbXbXbXbXbXbXyXtXqXqX:XqXtXiXbXbXbXbXbXbXbXbXyXtXqX:X;X;XqXwXtXjXbXbXbXbXbXbXbXbXbXbXbXbXbXbXbXbXbXbXbX",
"bXbXbXbXbXbXbXbXbXbXbXbXbXbXbXbXbXbXbXuXwX:X:X:XqXtXiXkXbXbXbXbXbXbXbXtXtX:X;X;X;XqXwXtXbXbXbXbXbXbXbXbXbXbXbXbXbXbXbXbXbXbXbXbX",
"bXbXbXbXbXbXbXbXbXbXbXbXbXbXbXbXbXbXbXrXwX:X:X;X-X&XoXv.U #.O.O.*.T u.G.OX*X-X;X;XqXwXyXbXbXbXbXbXbXbXbXbXbXbXbXbXbXbXbXbXbXbXbX",
"bXbXbXbXbXbXbXbXbXbXbXbXbXbXbXbXbXbXbXrXwX*XH.D.w.8.8.v.M.[.(.^.[.!.v.j.8.q.S.G.&X-XwXrXbXbXbXbXbXbXbXbXbXbXbXbXbXbXbXbXbXbXbXbX",
"bXbXbXbXbXbXbXbXbXbXbXbXbXbXbXbXbXbXbX0XG.w.w.S.D.F.F.`.4XfX5X3XdX6X`.W.F.D.S.S.q.k.&XeXbXbXbXbXbXbXbXbXbXbXbXbXbXbXbXbXbXbXbXbX",
"bXbXbXbXbXbXbXbXbXbXbXbXbXbXbXbXbXbXbX9.q.S.A.@.;.U.E.`.6XxX5X3XfXaX{.(.R.;.@.^ A.w.j.=XbXbXbXbXbXbXbXbXbXbXbXbXbXbXbXbXbXbXbXbX",
"bXbXbXbXbXbXbXbXbXbXbXbXbXbXbXbXbXbXbXW 0.Q ( [ %.:.E.].aXgX2X,XdXdX|.).W.I.$.] d ~ 0.9.bXbXbXbXbXbXbXbXbXbXbXbXbXbXbXbXbXbXbXbX",
"bXbXbXbXbXbXbXbXbXbXbXbXbXbXbXbXbXbXbXR G 5 d ) =.>.Q.{.aXfX,X|.sXdX>X_.(.R.=.$.) p 7.W bXbXbXbXbXbXbXbXbXbXbXbXbXbXbXbXbXbXbXbX",
"bXbXbXbXbXbXbXbXbXbXbXbXbXbXbXbXbXbX% I M 3 / [ -.I.(.|.dXfX<X|.dXzX2X`.`.W.Y.=.} d t.E bXbXbXbXbXbXbXbXbXbXbXbXbXbXbXbXbXbXbXbX",
"bXbXbXbXbXbXbXbXbXbXbXbXbXbXbXbXbXbX, 2.1 3 / } :.R._.,XfXfX2X,XdXcX6X{.[.Q.R.-.} d t.K bXbXbXbXbXbXbXbXbXbXbXbXbXbXbXbXbXbXbXbX",
"bXbXbXbXbXbXbXbXbXbXbXbXbXbXbXbXbXbXm 2.1 8 ) =.I.Q.[.4XzXzX2X<XdXvXaX|.[.(.T.%.' 9 e.R ; bXbXbXbXbXbXbXbXbXbXbXbXbXbXbXbXbXbXbX",
"bXbXbXbXbXbXbXbXbXbXbXbXbXbXbXbXbXbXe 2.B d $.I.R._.{.6XcXzX2X<XdXcXpX[._.Q.Y.=.{ S t.P 4 bXbXbXbXbXbXbXbXbXbXbXbXbXbXbXbXbXbXbX",
"bXbXbXbXbXbXbXbXbXbXbXbXbXbXbXbXbXbX1 4.G ) %.T.E._.|.aXcXfX<X>XdXcXsX|.`.).R.;.' 7 3.L * bXbXbXbXbXbXbXbXbXbXbXbXbXbXbXbXbXbXbX",
"bXbXbXbXbXbXbXbXbXbXbXbXbXbXbXbXbXbX1 5.G ) =.R.E._.{.pXxXfX1X,XdXcXsX|._.Q.U.=.( 3 3.L * bXbXbXbXbXbXbXbXbXbXbXbXbXbXbXbXbXbXbX",
"bXbXbXbXbXbXbXbXbXbXbXbXbXbXbXbXbXbX1 y.A / %.I.T.).{.aXxXdX>X}.aXxXsX}.).(.U.-.) 3 3.L * bXbXbXbXbXbXbXbXbXbXbXbXbXbXbXbXbXbXbX",
"bXbXbXbXbXbXbXbXbXbXbXbXbXbXbXbXbXbXM e.2 d =.Y.W._.{.pXxXsX{.`.pXxXsX}.).(.Y.;.' 5 C L r bXbXbXbXbXbXbXbXbXbXbXbXbXbXbXbXbXbXbX",
"bXbXbXbXbXbXbXbXbXbXbXbXbXbXbXbXbXbXF e.u { :.Y.R.(.].pXxXsX}.`.pXxXsX}.).(.Y.:.{ 8 Z 3.r bXbXbXbXbXbXbXbXbXbXbXbXbXbXbXbXbXbXbX",
"bXbXbXbXbXbXbXbXbXbXbXbXbXbXbXbXbXbXF 3.9 / =.I.T.(.}.sXxXsX}.`.pXxXdX,X).(.Y.>.$.d Y e.r bXbXbXbXbXbXbXbXbXbXbXbXbXbXbXbXbXbXbX",
"bXbXbXbXbXbXbXbXbXbXbXbXbXbXbXbXbXbXB e.2 / -.I.R.(.|.dXvXdX|.].aXvXzX2X`.`.W.U.;.) H e.y bXbXbXbXbXbXbXbXbXbXbXbXbXbXbXbXbXbXbX",
"bXbXbXbXbXbXbXbXbXbXbXbXbXbXbXbXbXbXm 3.2 / -.I.Y.E.Q._.]._.T.U.).].].Q.).).Q.T.:.) H e.t bXbXbXbXbXbXbXbXbXbXbXbXbXbXbXbXbXbXbX",
"bXbXbXbXbXbXbXbXbXbXbXbXbXbXbXbXbXbX, I 2 / { d 8 : @ . X O @ @ # @ @ # 6 9 d ) %.) H t.bXbXbXbXbXbXbXbXbXbXbXbXbXbXbXbXbXbXbXbX",
"bXbXbXbXbXbXbXbXbXbXbXbXbXbXbXbXbXbX% 2.< # .         . O @ @ @ @ @ @ @ + + + + : i ..r.bXbXbXbXbXbXbXbXbXbXbXbXbXbXbXbXbXbXbXbX",
"bXbXbXbXbXbXbXbXbXbXbXbXbXbXbXbXbXbX% 6.V     . X X X # $ $ $ $ $ $ # # # # @ @ + # d.r.bXbXbXbXbXbXbXbXbXbXbXbXbXbXbXbXbXbXbXbX",
"bXbXbXbXbXbXbXbXbXbXbXbXbXbXbXbXbXbXg 6.V   . X O + $ 3 3 3 3 3 3 3 3 : : $ $ @ @ - i.1.bXbXbXbXbXbXbXbXbXbXbXbXbXbXbXbXbXbXbXbX",
"bXbXbXbXbXbXbXbXbXbXbXbXbXbXbXbXbXbX% 4.R . X X + # 5 5 5 5 5 5 5 5 5 5 5 3 : $ @ q i.E bXbXbXbXbXbXbXbXbXbXbXbXbXbXbXbXbXbXbXbX",
"bXbXbXbXbXbXbXbXbXbXbXbXbXbXbXbXbXbXw Z R = X O @ 3 6 6 6 6 6 6 6 6 6 6 6 6 5 : @ F G N bXbXbXbXbXbXbXbXbXbXbXbXbXbXbXbXbXbXbXbX",
"bXbXbXbXbXbXbXbXbXbXbXbXbXbXbXbXbXt u 1 M G . X @ 6 7 7 7 7 7 7 7 7 7 7 7 6 5 : 2 ..1 B y bXbXbXbXbXbXbXbXbXbXbXbXbXbXbXbXbXbXbX",
"bXbXbXbXbXbXbXbXbXbXbXbXbXbXbXbXbXbX, f =  .- X @ 6 9 9 9 9 9 9 9 9 9 9 9 9 6 : H Z 1 K bXbXbXbXbXbXbXbXbXbXbXbXbXbXbXbXbXbXbXbX",
"bXbXbXbXbXbXbXbXbXbXbXbXbXbXbXbXbXbX% z = A H X @ 6 9 0 0 0 0 0 0 0 0 0 0 0 6 e  .- < K bXbXbXbXbXbXbXbXbXbXbXbXbXbXbXbXbXbXbXbX",
"bXbXbXbXbXbXbXbXbXbXbXbXbXbXbXbXbXbXx V - 2 o.$ + 5 7 9 9 9 9 9 9 8 8 9 0 9 6 H H $ 1 c bXbXbXbXbXbXbXbXbXbXbXbXbXbXbXbXbXbXbXbX",
"bXbXbXbXbXbXbXbXbXbXbXbXbXbXbXbXbXbXx V - :  .( / ( } :.U.U.-.%.;.U.U.-.} ' / +.A : > h bXbXbXbXbXbXbXbXbXbXbXbXbXbXbXbXbXbXbXbX",
"bXbXbXbXbXbXbXbXbXbXbXbXbXbXbXbXbXbXx V - : p.X.%.:.Q.pXvXcX4X}.6XcXvX2XE.:.{ z.A # & h bXbXbXbXbXbXbXbXbXbXbXbXbXbXbXbXbXbXbXbX",
"bXbXbXbXbXbXbXbXbXbXbXbXbXbXbXbXbXbXx V - 3 p.X.%.:.W.6XvXzX3X}.5XcXcX2XR.;.[ l.B O > n bXbXbXbXbXbXbXbXbXbXbXbXbXbXbXbXbXbXbXbX",
"bXbXbXbXbXbXbXbXbXbXbXbXbXbXbXbXbXbXx V - 3 p.X.%.:.W.6XcXzX3X}.5XzXcX<XY.%./ a.B # > c bXbXbXbXbXbXbXbXbXbXbXbXbXbXbXbXbXbXbXbX",
"bXbXbXbXbXbXbXbXbXbXbXbXbXbXbXbXbXbXx V - 3 p.X.$.;.W.6XcXzX2X[.3XzXzX>X:.{ p a.A @ > n bXbXbXbXbXbXbXbXbXbXbXbXbXbXbXbXbXbXbXbX",
"bXbXbXbXbXbXbXbXbXbXbXbXbXbXbXbXbXbXx V - 3 p.X.$.;.W.6XcXfX,X_.2XgXzX>X>.$./ s.B # < K bXbXbXbXbXbXbXbXbXbXbXbXbXbXbXbXbXbXbXbX",
"bXbXbXbXbXbXbXbXbXbXbXbXbXbXbXbXbXbXx V - 3 p.| ] %.Y.3XxXfX,X_.2XgXxX<XP.$./ s.A : < n bXbXbXbXbXbXbXbXbXbXbXbXbXbXbXbXbXbXbXbX",
"bXbXbXbXbXbXbXbXbXbXbXbXbXbXbXbXbXbX% z O @ o.D / } I.3XcXfX<X].3XzXzX<XU.=.' l.A # & h bXbXbXbXbXbXbXbXbXbXbXbXbXbXbXbXbXbXbXbX",
"bXbXbXbXbXbXbXbXbXbXbXbXbXbXbXbXbXbX% f O + _ S ( %.T.5XcXfX<X].4XzXcX2XT.=.( H e + & h bXbXbXbXbXbXbXbXbXbXbXbXbXbXbXbXbXbXbXbX",
"bXbXbXbXbXbXbXbXbXbXbXbXbXbXbXbXbXbXg z - $ _ d ] %.T.5XcXzX2X}.5XxXzX<X:.[ i H G : < j bXbXbXbXbXbXbXbXbXbXbXbXbXbXbXbXbXbXbXbX",
"bXbXbXbXbXbXbXbXbXbXbXbXbXbXbXbXbXbXg z O - _ / } -.E.6XcXfX<X`.2XgXzX>X=.) i A H + & j bXbXbXbXbXbXbXbXbXbXbXbXbXbXbXbXbXbXbXbX",
"bXbXbXbXbXbXbXbXbXbXbXbXbXbXbXbXbXbXx V o q &.( } %.U.4XxXdX,X_.2XgXgX>X=.( i A +.X & n bXbXbXbXbXbXbXbXbXbXbXbXbXbXbXbXbXbXbXbX",
"bXbXbXbXbXbXbXbXbXbXbXbXbXbXbXbXbXbXw M o G &.p / [ :.4XvXzX<X_.3XxXcX,X=./ i u l.- < Z bXbXbXbXbXbXbXbXbXbXbXbXbXbXbXbXbXbXbXbX",
"bXbXbXbXbXbXbXbXbXbXbXbXbXbXbXbXbXbXm f o t._ 5 0 p { R././.Y.:.R././.Y.' i 9 p v.e < Z t bXbXbXbXbXbXbXbXbXbXbXbXbXbXbXbXbXbXbX",
"bXbXbXbXbXbXbXbXbXbXbXbXbXbXbXbXbXbXq f > b._ # # : 5 5 6 6 9 0 0 0 0 9 7 3 : i M...l F s bXbXbXbXbXbXbXbXbXbXbXbXbXbXbXbXbXbXbX",
"bXbXbXbXbXbXbXbXbXbXbXbXbXbXbXbXbXbXe L 5. X_ : 5 7 9 0 0 0 0 0 9 9 9 9 7 5 $ 5 x.b.P Y a bXbXbXbXbXbXbXbXbXbXbXbXbXbXbXbXbXbXbX",
"bXbXbXbXbXbXbXbXbXbXbXbXbXbXbXbXbXbXu P h. XD 3 5 7 8 8 8 8 8 8 7 7 7 7 6 3 $ : s.V.3.Y a bXbXbXbXbXbXbXbXbXbXbXbXbXbXbXbXbXbXbX",
"bXbXbXbXbXbXbXbXbXbXbXbXbXbXbXbXbXbXD e.f.XXD : 5 6 6 6 6 6 6 6 6 6 6 6 6 3 $ @ x.B.3.Y 4 bXbXbXbXbXbXbXbXbXbXbXbXbXbXbXbXbXbXbX",
"bXbXbXbXbXbXbXbXbXbXbXbXbXbXbXbXbXbXD e.y.K.u : 3 5 5 5 5 5 5 5 5 5 5 5 5 3 $ @ p.N.I J 4 bXbXbXbXbXbXbXbXbXbXbXbXbXbXbXbXbXbXbX",
"bXbXbXbXbXbXbXbXbXbXbXbXbXbXbXbXbXbXD y.y.n.2 # $ : : 3 3 3 3 3 3 3 3 3 3 $ @ X F f.<.J 4 bXbXbXbXbXbXbXbXbXbXbXbXbXbXbXbXbXbXbX",
"bXbXbXbXbXbXbXbXbXbXbXbXbXbXbXbXbXbXD i.g.i.@ @ @ # # # # # $ # @ @ + + + X X X < 5.6.J 4 bXbXbXbXbXbXbXbXbXbXbXbXbXbXbXbXbXbXbX",
"bXbXbXbXbXbXbXbXbXbXbXbXbXbXbXbXbXbXu y.N.e.= X X X X X X . X . . . X O + @ + + M 5.h.C 4 bXbXbXbXbXbXbXbXbXbXbXbXbXbXbXbXbXbXbX",
"bXbXbXbXbXbXbXbXbXbXbXbXbXbXbXbXbXbXq 4.C.f.L M - X .     . . X + + + + + - < J 3.h.h.C r bXbXbXbXbXbXbXbXbXbXbXbXbXbXbXbXbXbXbX",
"bXbXbXbXbXbXbXbXbXbXbXbXbXbXbXbXbXbX4 2.B.N.B.V.m.a.+.` ' ) _ H ` ' ) | p.v.m.B.N.g.h.C ; bXbXbXbXbXbXbXbXbXbXbXbXbXbXbXbXbXbXbX",
"bXbXbXbXbXbXbXbXbXbXbXbXbXbXbXbXbXbX, 2.y.t.Z..X#X+X$X1X5X1X+XXX@X4X2X@X+X#X+XZ.g.P f.n bXbXbXbXbXbXbXbXbXbXbXbXbXbXbXbXbXbXbXbX",
"bXbXbXbXbXbXbXbXbXbXbXbXbXbXbXbXbXbXg <.e.R L. X#X#X%XhXvXlX$X+X8XxXzX7X#X#X.XC.g.M 6.b bXbXbXbXbXbXbXbXbXbXbXbXbXbXbXbXbXbXbXbX",
"bXbXbXbXbXbXbXbXbXbXbXbXbXbXbXbXbXbXbXI e.< d.d.#X#X%XhXvXlX~.z.9XxXfX7X#X#XK.t.Y < 4.v bXbXbXbXbXbXbXbXbXbXbXbXbXbXbXbXbXbXbXbX",
"bXbXbXbXbXbXbXbXbXbXbXbXbXbXbXbXbXbXbXP t.= u D x.M.!.|.3X<Xc.+.@X2X,X^.M.M.o.S 2 < t.w bXbXbXbXbXbXbXbXbXbXbXbXbXbXbXbXbXbXbXbX",
"bXbXbXbXbXbXbXbXbXbXbXbXbXbXbXbXbXbXbXT 0.D d } } $./.4X3X<XE.;.].3X5X].=.} } ] 9 7.7.g bXbXbXbXbXbXbXbXbXbXbXbXbXbXbXbXbXbXbXbX",
"bXbXbXbXbXbXbXbXbXbXbXbXbXbXbXbXbXbXbXbX1.7.G _ +.&.J.'.'.'.J.z.^.'.'.J.o.| _ A ! ! x bXbXbXbXbXbXbXbXbXbXbXbXbXbXbXbXbXbXbXbXbX",
"bXbXbXbXbXbXbXbXbXbXbXbXbXbXbXbXbXbXbXbXbXg U ,.,.2.<.<.<.<.<.<.<.<.<.<.<.,.b v k bXbXbXbXbXbXbXbXbXbXbXbXbXbXbXbXbXbXbXbXbXbXbX",
"bXbXbXbXbXbXbXbXbXbXbXbXbXbXbXbXbXbXbXbXbXbXbXbXbXbXbX% & 2 r * = q k bXbXbXbXbXbXbXbXbXbXbXbXbXbXbXbXbXbXbXbXbXbXbXbXbXbXbXbXbX",
"bXbXbXbXbXbXbXbXbXbXbXbXbXbXbXbXbXbXbXbXbXbXbXbXbXbXbXbXbX; bXbX; bXbXbXbXbXbXbXbXbXbXbXbXbXbXbXbXbXbXbXbXbXbXbXbXbXbXbXbXbXbXbX",
"bXbXbXbXbXbXbXbXbXbXbXbXbXbXbXbXbXbXbXbXbXbXbXbXbXbXbXbXbXbXbXbXbXbXbXbXbXbXbXbXbXbXbXbXbXbXbXbXbXbXbXbXbXbXbXbXbXbXbXbXbXbXbXbX"
};
