/* XPM */
static char *_b8eda5b11d6445ac788a1abef857e5dRSkoDBBkuAQ1KHeA[] = {
/* columns rows colors chars-per-pixel */
"32 32 7 1 ",
"  c None",
". c #4D4539",
"X c #4B726E",
"o c #927441",
"O c #BA9158",
"+ c #A89F94",
"@ c #D2C9A5",
/* pixels */
"                                ",
"                                ",
"                                ",
"                                ",
"                                ",
"                                ",
"                                ",
"                                ",
"              ....              ",
"             .XXXX.             ",
"             .@@X@X.            ",
"            .X@.@.@.            ",
"            .X@.@.@.            ",
"            .XX@X@..   .        ",
"           .XXXXXX......        ",
"          .XXXXOOO.oOOo.        ",
"          .XXXX@@@.@OO@.        ",
"          .XX.@@@@.o@@o.        ",
"          .X..@@@@.oOOo.        ",
"          ..+@@@@@.oOOo.        ",
"          ...+++++.oOOo.        ",
"            ...........         ",
"           ..XX@@XX.            ",
"          ..OOX..XOO            ",
"                                ",
"                                ",
"                                ",
"                                ",
"                                ",
"                                ",
"                                ",
"                                "
};
