/* XPM */
static char *result[] = {
/* columns rows colors chars-per-pixel */
"64 64 182 2 ",
"   c #070707",
".  c #0E0A0A",
"X  c #0E0E0E",
"o  c #141212",
"O  c #181717",
"+  c gray10",
"@  c #1D1C1D",
"#  c #1F1D1F",
"$  c #3C0C0E",
"%  c #2C0F10",
"&  c #241414",
"*  c #261718",
"=  c #201F1F",
"-  c #361111",
";  c #3F1516",
":  c #371B1C",
">  c #3D1B1D",
",  c #2B1F20",
"<  c #222221",
"1  c #262123",
"2  c #252525",
"3  c #282828",
"4  c #2A2A2A",
"5  c #2C2B2B",
"6  c gray18",
"7  c #372324",
"8  c #3B2120",
"9  c #3E2526",
"0  c #362829",
"q  c #352C2C",
"w  c #3B2E2F",
"e  c #363435",
"r  c #3A3A38",
"t  c #3B3A39",
"y  c #3E3E3D",
"u  c #461513",
"i  c #4F1215",
"p  c #4A1618",
"a  c #4C1F1F",
"s  c #6A1B1F",
"d  c #422626",
"f  c #4A2223",
"g  c #482A2C",
"h  c #562426",
"j  c #5E2224",
"k  c #502B2C",
"l  c #483334",
"z  c #4E3E3D",
"x  c #563031",
"c  c #573735",
"v  c #5F3D3F",
"b  c #642327",
"n  c #602527",
"m  c #772428",
"M  c #603737",
"N  c #6E3633",
"B  c #703331",
"V  c #714720",
"C  c #6D512C",
"Z  c #7E733B",
"A  c #454544",
"S  c #4C4B47",
"D  c #5E4344",
"F  c #5F4B4D",
"G  c #505050",
"H  c #565656",
"J  c #595A5A",
"K  c #5D5E5E",
"L  c #714446",
"P  c #685655",
"I  c #725255",
"U  c #755455",
"Y  c #726B49",
"T  c #616263",
"R  c #6A6B6A",
"E  c #7F6062",
"W  c #7A6164",
"Q  c #707071",
"!  c #747575",
"~  c gray48",
"^  c #7E7E7F",
"/  c #83272B",
"(  c #8A2629",
")  c #83382F",
"_  c #8A2D30",
"`  c #843538",
"'  c #883C3F",
"]  c #95363C",
"[  c #A53A3E",
"{  c #855B34",
"}  c #A05B32",
"|  c #88643E",
" . c #9A7339",
".. c #B0722E",
"X. c #863D40",
"o. c #854544",
"O. c #9A474B",
"+. c #825357",
"@. c #885856",
"#. c #9B585C",
"$. c #AB454B",
"%. c #A74E52",
"&. c #BC4C50",
"*. c #A46844",
"=. c #AA7849",
"-. c #8B5F61",
";. c #96696C",
":. c #A06562",
">. c #B86D72",
",. c #AB767B",
"<. c #C05B5E",
"1. c #CC6569",
"2. c #DA6B70",
"3. c #EE777C",
"4. c #978037",
"5. c #B8842F",
"6. c #B18A46",
"7. c #988567",
"8. c #BEA071",
"9. c #C8B57F",
"0. c #967B81",
"q. c #D17F84",
"w. c #848586",
"e. c #878989",
"r. c #8C8D8E",
"t. c #929294",
"y. c #979898",
"u. c #9B9C9E",
"i. c #AE8F94",
"p. c #9AA1A8",
"a. c #A2A1A0",
"s. c #A4A5A6",
"d. c #A7A9AB",
"f. c #AEAEAF",
"g. c #BAA3A9",
"h. c #ACB1B6",
"j. c #B4B4B5",
"k. c #B4B8BB",
"l. c #B8BBBF",
"z. c #EB868B",
"x. c #E59094",
"c. c #EF9BA0",
"v. c #D0B1B7",
"b. c #FBA1A5",
"n. c #E7AFB4",
"m. c #EEB9BE",
"M. c #DAC994",
"N. c #E4DB9D",
"B. c #D6C7A2",
"V. c #F0ECAE",
"C. c #FDF7B0",
"Z. c #FEF9BD",
"A. c #BAC0C6",
"S. c #BDC3C9",
"D. c #C2C6CD",
"F. c #C5CBD1",
"G. c #C5CDD4",
"H. c #C9D1D8",
"J. c #CCD4DC",
"K. c #ECC3C7",
"L. c #E9CED2",
"P. c #F1EECE",
"I. c #FEF9C4",
"U. c #FEFBCE",
"Y. c #FDFBD7",
"T. c #FFFCD5",
"R. c #FFFBD8",
"E. c #FDFDD8",
"W. c #FEFDDF",
"Q. c #CFD8E2",
"!. c #D3DDE6",
"~. c #D6E1EC",
"^. c #DBE6F0",
"/. c #DEEAF4",
"(. c #DEECF9",
"). c #E7E4EF",
"_. c #FDFBE0",
"`. c #FCFDE8",
"'. c #E0EDF6",
"]. c #E1EEFC",
"[. c #E4F1FA",
"{. c #536882",
/* pixels */
"{.{.{.{.{.{.{.{.{.{.{.{.{.{.{.{.{.{.{.{.{.{.{.{.{.{.{.{.{.{.{.{.{.{.{.{.{.{.{.{.{.{.{.{.{.{.{.{.{.{.{.{.{.{.{.{.{.{.{.{.{.{.{.{.",
"{.{.{.{.{.{.{.{.{.{.{.{.{.{.{.{.{.{.{.{.{.{.{.{.{.{.{.{.{.{.{.{.{.{.{.{.{.{.{.{.{.{.{.{.{.{.{.{.{.{.{.{.{.{.{.{.{.{.{.{.{.{.{.{.",
"{.{.{.{.{.{.{.{.{.{.{.{.{.{.{.{.{.{.{.{.{.{.{.{.{.{.{.{.{.{.{.{.{.{.{.{.{.{.{.{.{.{.{.{.{.{.{.{.{.{.{.{.{.{.{.{.{.{.{.{.{.{.{.{.",
"{.{.{.{.{.{.{.{.{.{.{.{.{.{.{.{.{.{.{.{.{.{.{.{.{.{.{.{.{.{.{.{.{.{.{.{.{.{.{.{.{.{.{.{.{.{.{.{.{.{.{.{.{.{.{.{.{.{.{.{.{.{.{.{.",
"{.{.{.{.{.{.{.{.{.{.{.{.{.{.{.{.{.{.{.{.{.{.{.{.{.{.{.{.{.{.{.{.{.{.{.{.{.{.{.{.{.{.{.{.{.{.{.{.{.{.{.{.{.{.{.{.{.{.{.{.{.{.{.{.",
"{.{.{.{.{.{.{.{.{.{.{.{.{.{.{.{.{.{.{.{.{.{.{.{.{.{.{.{.{.{.{.{.{.{.{.{.{.{.{.{.{.{.{.{.{.{.{.{.{.{.{.{.{.{.{.{.{.{.{.{.{.{.{.{.",
"{.{.{.{.{.{.{.{.{.{.{.{.{.{.{.{.{.{.{.{.{.{.{.{.{.{.{.{.{.{.{.{.{.{.{.{.{.{.{.{.{.{.{.{.{.{.{.{.{.{.{.{.{.{.{.{.{.{.{.{.{.{.{.{.",
"{.{.{.{.{.{.{.{.{.{.{.{.{.{.{.{.{.{.{.{.{.{.{.{.{.{.{.{.{.{.{.{.{.{.{.{.{.{.{.{.{.{.{.{.{.{.{.{.{.{.{.{.{.{.{.{.{.{.{.{.{.{.{.{.",
"{.{.{.{.{.{.{.{.{.{.{.{.{.{.{.{.{.{.{.{.{.{.{.{.{.{.{.{.{.{.{.{.{.{.{.{.{.{.{.{.{.{.{.{.{.{.{.{.{.{.{.{.{.{.{.{.{.{.{.{.{.{.{.{.",
"{.{.{.{.{.{.{.{.{.{.{.{.{.{.{.{.{.{.{.{.{.{.{.{.{.{.{.{.{.{.{.{.{.{.{.{.{.{.{.{.{.{.{.{.{.{.{.{.{.{.{.{.{.{.{.{.{.{.{.{.{.{.{.{.",
"{.{.{.{.{.{.{.{.{.{.{.{.{.{.{.{.{.{.{.{.{.{.{.{.{.{.{.{.{.{.{.{.{.{.{.{.{.{.{.{.{.{.{.{.{.{.{.{.{.{.{.{.{.{.{.{.{.{.{.{.{.{.{.{.",
"{.{.{.{.{.{.{.{.{.{.{.{.{.{.{.{.{.{.{.{.{.{.{.{.{.{.{.{.{.{.{.{.{.{.{.{.{.{.{.{.{.{.{.{.{.{.{.{.{.{.{.{.{.{.{.{.{.{.{.{.{.{.{.{.",
"{.{.{.{.{.{.{.{.{.{.{.{.{.{.{.{.{.{.{.{.{.{.{.{.{.{.{.{.{.{.{.{.{.{.{.{.{.{.{.{.{.{.{.{.{.{.{.{.{.{.{.{.{.{.{.{.{.{.{.{.{.{.{.{.",
"{.{.{.{.{.{.{.{.{.{.{.{.{.{.{.{.{.{.{.{.{.{.{.{.{.{.{.{.{.{.{.{.{.{.{.{.{.{.{.{.{.{.{.{.{.{.{.{.{.{.{.{.{.{.{.{.{.{.{.{.{.{.{.{.",
"{.{.{.{.{.{.{.{.{.{.{.{.{.{.{.{.{.{.{.{.{.{.{.{.{.{.{.{.{.{.{.{.{.{.{.{.{.{.{.{.{.{.{.{.{.{.{.{.{.{.{.{.{.{.{.{.{.{.{.{.{.{.{.{.",
"{.{.{.{.{.{.{.{.{.{.{.{.{.{.{.{.{.{.{.{.{.{.{.{.{.{.{.{.{.{.{.{.{.{.{.{.{.{.{.{.{.{.{.{.{.{.{.{.{.{.{.{.{.{.{.{.{.{.{.{.{.{.{.{.",
"{.{.{.{.{.{.{.{.{.{.{.{.{.{.{.{.{.{.{.{.{.{.{.{.{.{.{.{.{.{.{.{.{.{.{.{.{.{.{.{.{.{.{.{.{.{.{.{.{.{.{.{.{.{.{.{.{.{.{.{.{.{.{.{.",
"{.{.{.{.{.{.{.{.{.{.{.{.{.{.{.{.{.{.{.{.{.{.{.{.{.{.{.{.{.{.{.{.{.{.{.{.{.{.{.{.{.{.{.{.{.{.{.{.{.{.{.{.{.{.{.{.{.{.{.{.{.{.{.{.",
"{.{.{.{.{.{.{.{.{.{.{.{.{.{.{.{.{.{.{.{.{.{.{.{.{.{.{.{.{.{.{.{.{.{.{.{.{.{.{.{.{.{.{.{.{.{.{.{.{.{.{.{.{.{.{.{.{.{.{.{.{.{.{.{.",
"_.{.{.{.{.{.{.{.{.{.# 1 & & & 0 0 0 0 q {.{.{.{.{.{.0 {.{.{.{.{.{.{.{.{.{.{.{.{.{.{.{.q t r r 1 1 1 1 1 0 # {.{.{.{.{.{.{.{.{.{.",
"T.T.R.Y.E.B.| V N j B B m m m m ` X.X.X.o.' ' ) N l g j j i i i j i j j j i i i i j k k x M M M n n n n n n j s b 8 u {.{.{.{.{.",
"U.U.U.U.M.*. .{ o.o.X.o.` ` ` n k M v v v L #.O.O.c > > : > - % - - - : : % % : % % : : p B ` ` m ( [ &.&.&.$.[ ] o.{ a {.{.{.{.",
"I.I.I.V.=...C e y y 5 l 4 < < 2 5 y G G G e + * 7 x L k * @ = + o + O + = + o = o X * 9 L 1.2.1.<.$.] ] &.%.B f : : { C {.{.{.{.",
"C.C.C.M...4.y G K K G J G S G G J T ~ ~ R = o O O O , v L v l l g g l g l l 9 c v U -.:.,.;.-.;.+.x : f ` <.%.%.M , 5 C ; {.{.{.",
"C.C.C.8.5.Z H T Q ! R Q ~ Q ! ~ ~ ^ w.r.G o O O @ = = = 9 v U ;.-.@.@.-.-.-.v v l l w e e 2 = O O X X o n 1.3.2.o.l H l b {.{.{.",
"Z.C.V.5.5.Y T Q e.r.r.e.r.w.w.e.e.e.y.u.y o O @ = 2 2 3 3 3 A J H A e A A G S e e e e 5 = @ @ @ @ O X o : >.c.z.q.U K D s {.{.{.",
"I.Z.N...6.~ w.r.y.u.a.u.s.u.a.a.a.a.f.s.5 o + @ < 3 3 5 6 5 G ~ ~ R J T T Q Q H G S A e < 2 < < < @ X O * :.b.b.b.,.K F / {.{.{.",
"T.T.9.} 7.r.y.a.f.j.j.d.f.d.s.s.s.s.f.s.3 o + = 2 3 4 5 6 6 K t.r.e.~ ^ ^ w.r.~ Q Q Q G 4 4 3 3 2 < o o o +.c.b.b.,.Q U ( {.{.{.",
"R.T.8.*.y.a.s.d.f.j.l.j.l.l.k.k.k.S.F.u.+ O + = 2 3 4 5 6 5 ! F.F.D.A.A.D.D.F.D.A.A.S.e.5 5 4 3 2 < o o o F v.K.K.i.h.0.( {.{.{.",
"{.{.@.:.f.j.l.A.F.J.!.Q.~.~.~.~.~.^.'.h.O O + < 2 3 4 5 6 5 w.[.[.[.'.'.].'.[.'.'.(.[.p.6 5 4 3 2 < o X o G F.'./.S.H.g.( ; {.{.",
"{.{.N i.J.!.^.^.'.[.[.[.[.[.].].].].[.h.O O @ < 2 3 4 5 6 5 w.[.[.'.'.(.(.'.'.].(.(.].p.6 5 4 3 2 < O . o G H.].].F.G.g.( 7 {.{.",
"{.{.W j.^./.^.~.^.^.^.^.^.^.!.Q.Q.Q.!.s.+ O @ < 2 3 4 5 6 5 ~ J.H.H.G.F.F.G.H.H.F.F.G.r.6 5 4 3 2 < O . o F v.L.L.v.h.i.( * # {.",
"{.{.I i.G.G.S.l.l.S.D.D.A.S.k.f.f.f.h.w.O O @ < 2 3 4 5 6 5 R k.k.k.j.d.d.h.h.k.f.d.d.~ 6 6 5 3 2 < + . X v x.c.;.U ~ ;.( & {.{.",
"{.{.I a.H.H.F.S.D.F.F.F.D.D.A.j.k.k.l.r.O O @ < 2 3 4 5 6 5 ! H.G.G.F.S.S.D.D.F.D.S.D.e.5 6 5 3 2 < @ X . D c.n.i.0.t.0.( 0 {.{.",
"{.{.W j./.].(./././.'.'././.^.~.~.~.^.d.o O @ < 2 3 4 5 6 5 w.[.'.'.'././././.'./.^.'.p.3 6 5 3 2 < + . . G D.).).D.D.g.( , # {.",
"{.{.b ,.H.J.!.!.^./.'.[.[.].].].].].[.h.X o @ < 2 3 4 5 6 5 w.[.[.[.[.[.].[.[.[.[.].[.p.3 6 5 3 2 < + X   G H.[.[.G.G.g.( % {.{.",
"{.`.:.:.f.f.h.j.l.S.H.J.!.Q.!.Q.Q.~.^.d.. . + < 2 3 4 5 6 5 ~ Q.J.J.J.J.G.G.H.H.J.H.H.r.2 6 5 3 2 < + X   F D.).).l.H.g.( $ {.{.",
"W.W.8.} 7.t.t.u.a.d.j.j.l.j.j.j.h.k.l.u.O   X @ 2 3 4 5 5 4 K u.y.y.y.y.e.w.r.r.t.w.~ J 2 5 5 3 2 = + X . U n.m.m.i.p.0.( {.{.{.",
"T.T.M.} 7.w.~ ^ w.r.u.d.d.d.s.d.a.a.a.t.=   X o + < 3 3 3 2 S ~ ~ ~ ~ ~ R K R R ! R H e = 4 4 3 2 = + X X @.c.b.b.,.T E _ {.{.{.",
"I.I.V...6.~ R Q ! ~ w.r.t.t.r.y.r.r.r.e.5   X o o O O O O o A R R R T T H A S H K K A 6 + 2 2 2 < @ O X * >.b.b.b.;.K U / {.{.{.",
"Z.Z.C.6.5.Y H G H K Q w.r.r.w.e.e.w.w.w.y   . X X o X X X @ S P P P P P F z l y A S e 2 + = < = = + O X f 2.z.z.#.z K D / {.{.{.",
"I.Z.Z.9...4.S y A A G T R Q R Q ~ Q ! ! J .   . X X . * v U L +.+.+.+.+.+.U D D D E E D D D z z w , O * m 1.3.3.#.w y c b {.{.{.",
"I.Z.Z.N...5.S 2 < < 5 y G G A y J A A A A +     . * c L l , = = < < < < < O o @ * 7 c o.1.z.z.x.q.>.O.X.$.<.o.B : * z { u {.{.{.",
"T.U.U.U.8... .c f > > g c c l , w 5 , , , : h h B B f * * * * * * * * * * o o * o . . . - ] &.$.O.O.%.<.2.1.O.X.X.o. .) {.{.{.{.",
"R.E.Y.Y.P.| V B m _ _ _ ] ] O.X.X.` X.` m _ [ [ ] k > p p h h h h h h h h p p p p h f p p m B X.X.O.O.O.] _ _ ( m B N {.{.{.{.{.",
"{.{.{.{.{.{.{.{.$ ; d 9 > > > f x x g d ; $ $ u $ 8 w ; $ a a a a a a a a $ $ u u a 8 d 7 9 w z z z z w 7 1 ; u {.{.{.{.{.{.{.{.",
"{.{.{.{.{.{.{.{.{.{.{.{.{.{.{.{.{.{.{.{.{.{.{.{.{.{.q {.{.{.{.{.{.{.{.{.{.{.{.{.{.{.{.{.{.{.{.{.{.{.{.{.{.{.{.{.{.{.{.{.{.{.{.{.",
"{.{.{.{.{.{.{.{.{.{.{.{.{.{.{.{.{.{.{.{.{.{.{.{.{.{.{.{.{.{.{.{.{.{.{.{.{.{.{.{.{.{.{.{.{.{.{.{.{.{.{.{.{.{.{.{.{.{.{.{.{.{.{.{.",
"{.{.{.{.{.{.{.{.{.{.{.{.{.{.{.{.{.{.{.{.{.{.{.{.{.{.{.{.{.{.{.{.{.{.{.{.{.{.{.{.{.{.{.{.{.{.{.{.{.{.{.{.{.{.{.{.{.{.{.{.{.{.{.{.",
"{.{.{.{.{.{.{.{.{.{.{.{.{.{.{.{.{.{.{.{.{.{.{.{.{.{.{.{.{.{.{.{.{.{.{.{.{.{.{.{.{.{.{.{.{.{.{.{.{.{.{.{.{.{.{.{.{.{.{.{.{.{.{.{.",
"{.{.{.{.{.{.{.{.{.{.{.{.{.{.{.{.{.{.{.{.{.{.{.{.{.{.{.{.{.{.{.{.{.{.{.{.{.{.{.{.{.{.{.{.{.{.{.{.{.{.{.{.{.{.{.{.{.{.{.{.{.{.{.{.",
"{.{.{.{.{.{.{.{.{.{.{.{.{.{.{.{.{.{.{.{.{.{.{.{.{.{.{.{.{.{.{.{.{.{.{.{.{.{.{.{.{.{.{.{.{.{.{.{.{.{.{.{.{.{.{.{.{.{.{.{.{.{.{.{.",
"{.{.{.{.{.{.{.{.{.{.{.{.{.{.{.{.{.{.{.{.{.{.{.{.{.{.{.{.{.{.{.{.{.{.{.{.{.{.{.{.{.{.{.{.{.{.{.{.{.{.{.{.{.{.{.{.{.{.{.{.{.{.{.{.",
"{.{.{.{.{.{.{.{.{.{.{.{.{.{.{.{.{.{.{.{.{.{.{.{.{.{.{.{.{.{.{.{.{.{.{.{.{.{.{.{.{.{.{.{.{.{.{.{.{.{.{.{.{.{.{.{.{.{.{.{.{.{.{.{.",
"{.{.{.{.{.{.{.{.{.{.{.{.{.{.{.{.{.{.{.{.{.{.{.{.{.{.{.{.{.{.{.{.{.{.{.{.{.{.{.{.{.{.{.{.{.{.{.{.{.{.{.{.{.{.{.{.{.{.{.{.{.{.{.{.",
"{.{.{.{.{.{.{.{.{.{.{.{.{.{.{.{.{.{.{.{.{.{.{.{.{.{.{.{.{.{.{.{.{.{.{.{.{.{.{.{.{.{.{.{.{.{.{.{.{.{.{.{.{.{.{.{.{.{.{.{.{.{.{.{.",
"{.{.{.{.{.{.{.{.{.{.{.{.{.{.{.{.{.{.{.{.{.{.{.{.{.{.{.{.{.{.{.{.{.{.{.{.{.{.{.{.{.{.{.{.{.{.{.{.{.{.{.{.{.{.{.{.{.{.{.{.{.{.{.{.",
"{.{.{.{.{.{.{.{.{.{.{.{.{.{.{.{.{.{.{.{.{.{.{.{.{.{.{.{.{.{.{.{.{.{.{.{.{.{.{.{.{.{.{.{.{.{.{.{.{.{.{.{.{.{.{.{.{.{.{.{.{.{.{.{.",
"{.{.{.{.{.{.{.{.{.{.{.{.{.{.{.{.{.{.{.{.{.{.{.{.{.{.{.{.{.{.{.{.{.{.{.{.{.{.{.{.{.{.{.{.{.{.{.{.{.{.{.{.{.{.{.{.{.{.{.{.{.{.{.{.",
"{.{.{.{.{.{.{.{.{.{.{.{.{.{.{.{.{.{.{.{.{.{.{.{.{.{.{.{.{.{.{.{.{.{.{.{.{.{.{.{.{.{.{.{.{.{.{.{.{.{.{.{.{.{.{.{.{.{.{.{.{.{.{.{.",
"{.{.{.{.{.{.{.{.{.{.{.{.{.{.{.{.{.{.{.{.{.{.{.{.{.{.{.{.{.{.{.{.{.{.{.{.{.{.{.{.{.{.{.{.{.{.{.{.{.{.{.{.{.{.{.{.{.{.{.{.{.{.{.{.",
"{.{.{.{.{.{.{.{.{.{.{.{.{.{.{.{.{.{.{.{.{.{.{.{.{.{.{.{.{.{.{.{.{.{.{.{.{.{.{.{.{.{.{.{.{.{.{.{.{.{.{.{.{.{.{.{.{.{.{.{.{.{.{.{.",
"{.{.{.{.{.{.{.{.{.{.{.{.{.{.{.{.{.{.{.{.{.{.{.{.{.{.{.{.{.{.{.{.{.{.{.{.{.{.{.{.{.{.{.{.{.{.{.{.{.{.{.{.{.{.{.{.{.{.{.{.{.{.{.{.",
"{.{.{.{.{.{.{.{.{.{.{.{.{.{.{.{.{.{.{.{.{.{.{.{.{.{.{.{.{.{.{.{.{.{.{.{.{.{.{.{.{.{.{.{.{.{.{.{.{.{.{.{.{.{.{.{.{.{.{.{.{.{.{.{."
};
