/* XPM */
static char *result[] = {
/* columns rows colors chars-per-pixel */
"64 64 236 2 ",
"   c #070707",
".  c #0C0B0B",
"X  c #0E0E0E",
"o  c #1A070A",
"O  c #151111",
"+  c #141313",
"@  c #181717",
"#  c gray10",
"$  c #1D1C1D",
"%  c #1F1D1F",
"&  c #3C0C0E",
"*  c #2C0F10",
"=  c #241414",
"-  c #271415",
";  c #26191A",
":  c #201F1F",
">  c #361111",
",  c #3D1516",
"<  c #371B1C",
"1  c #3D1B1D",
"2  c #2B1F20",
"3  c #222221",
"4  c #262123",
"5  c #252525",
"6  c #282828",
"7  c #2A2A2A",
"8  c gray17",
"9  c #2D2C2C",
"0  c gray18",
"q  c #372324",
"w  c #3B2120",
"e  c #3E2526",
"r  c #362628",
"t  c #352C2C",
"y  c #362D2D",
"u  c #3B2E2F",
"i  c #343334",
"p  c #3A3736",
"a  c #3A3A38",
"s  c #3B3A39",
"d  c #3E3E3D",
"f  c #461513",
"g  c #471215",
"h  c #441717",
"j  c #4E1014",
"k  c #4F1215",
"l  c #47191A",
"z  c #4F191C",
"x  c #4C1F1F",
"c  c #521619",
"v  c #5B1A1D",
"b  c #6A1B1F",
"n  c #5B1D20",
"m  c #422626",
"M  c #4A2223",
"N  c #472E2C",
"B  c #482A2C",
"V  c #562426",
"C  c #5E2426",
"Z  c #502B2C",
"A  c #4A3233",
"S  c #423839",
"D  c #4E3E3D",
"F  c #563031",
"G  c #573735",
"H  c #5F3D3F",
"J  c #632729",
"K  c #62282A",
"L  c #712125",
"P  c #722F2F",
"I  c #7F292D",
"U  c #6E2C32",
"Y  c #603737",
"T  c #683633",
"R  c #6E3733",
"E  c #743634",
"W  c #4F4E32",
"Q  c #714720",
"!  c #704B2E",
"~  c #665C29",
"^  c #7E733B",
"/  c #454544",
"(  c #4C4B4A",
")  c gray31",
"_  c #5E4344",
"`  c #594A4E",
"'  c #525152",
"]  c #535456",
"[  c #595757",
"{  c #595A5A",
"}  c #5D5E5E",
"|  c #634C4C",
" . c #6F484B",
".. c #744042",
"X. c #685655",
"o. c #735152",
"O. c #725255",
"+. c #765658",
"@. c #726B49",
"#. c #745F61",
"$. c #616263",
"%. c #6A6B6A",
"&. c #7F6062",
"*. c #707071",
"=. c #747575",
"-. c #797977",
";. c #7A7B7C",
":. c #7E7D7E",
">. c #83272B",
",. c #8A2629",
"<. c #83382F",
"1. c #8A2D30",
"2. c #843538",
"3. c #883C3F",
"4. c #913339",
"5. c #993A3F",
"6. c #A53A3E",
"7. c #855B34",
"8. c #A05B32",
"9. c #88643E",
"0. c #9A7339",
"q. c #AB6D2A",
"w. c #B37631",
"e. c #863D40",
"r. c #854544",
"t. c #9B4448",
"y. c #8A594A",
"u. c #984C50",
"i. c #825357",
"p. c #87585A",
"a. c #8A5D5F",
"s. c #9B585C",
"d. c #AB454B",
"f. c #A74E52",
"g. c #BC4C50",
"h. c #A46844",
"j. c #AA7849",
"k. c #8B6264",
"l. c #806368",
"z. c #8D676A",
"x. c #9F6C6F",
"c. c #90767D",
"v. c #A06562",
"b. c #BE6569",
"n. c #B56A6E",
"m. c #B96F74",
"M. c #AB767B",
"N. c #C05B5E",
"B. c #D26569",
"V. c #D26D72",
"C. c #E1696E",
"Z. c #ED777A",
"A. c #978037",
"S. c #B8842F",
"D. c #B18A46",
"F. c #988567",
"G. c #BD9E6A",
"H. c #C9B673",
"J. c #987D82",
"K. c #D17F84",
"L. c #EE7780",
"P. c #7E8083",
"I. c #848484",
"U. c #848688",
"Y. c #878989",
"T. c #8B8B8C",
"R. c #8D8E8F",
"E. c #929294",
"W. c #979898",
"Q. c #9B9C9E",
"!. c #AC878C",
"~. c #B38D94",
"^. c #AD9499",
"/. c #9AA1A8",
"(. c #A2A1A0",
"). c #A4A5A6",
"_. c #A7A9AB",
"`. c #AEAEAF",
"'. c #BAA3A9",
"]. c #ACB1B6",
"[. c #B4B2B3",
"{. c #B3B5B7",
"}. c #B4B8BB",
"|. c #B8BBBF",
" X c #E38387",
".X c #F78B91",
"XX c #E59094",
"oX c #C2A787",
"OX c #C7B48B",
"+X c #EF9BA0",
"@X c #D0B1B7",
"#X c #FBA1A5",
"$X c #E7AFB4",
"%X c #EEB9BE",
"&X c #DAC994",
"*X c #E4DB9D",
"=X c #D6C7A2",
"-X c #F0ECAE",
";X c #FDF7B0",
":X c #FEF9BD",
">X c #BAC0C6",
",X c #BDC3C9",
"<X c #C0C6CC",
"1X c #CAC7CF",
"2X c #C5CBD1",
"3X c #C5CDD4",
"4X c #C8CFD7",
"5X c #C9D2D9",
"6X c #CCD4DC",
"7X c #ECC3C7",
"8X c #E9CED1",
"9X c #E9CED3",
"0X c #F1EECE",
"qX c #FEF9C4",
"wX c #FEFBCE",
"eX c #FCFCD3",
"rX c #FDFBD7",
"tX c #FFFCD5",
"yX c #FFFBD8",
"uX c #FDFDDC",
"iX c #FEFDDF",
"pX c #CFD8E2",
"aX c #D3DDE6",
"sX c #D6E1EC",
"dX c #DBE6F0",
"fX c #DEEAF4",
"gX c #DEECF9",
"hX c #EBE1ED",
"jX c #FDFBE0",
"kX c #FCFDE8",
"lX c #E3E6F0",
"zX c #E0EDF6",
"xX c #E1EEFC",
"cX c #E3F0F9",
"vX c #E4F1FC",
"bX c #536882",
/* pixels */
"bXbXbXbXbXbXbXbXbXbXbXbXbXbXbXbXbXbXbXbXbXbXbXbXbXbXbXbXbXbXbXbXbXbXbXbXbXbXbXbXbXbXbXbXbXbXbXbXbXbXbXbXbXbXbXbXbXbXbXbXbXbXbXbX",
"bXbXbXbXbXbXbXbXbXbXbXbXbXbXbXbXbXbXbXbXbXbXbXbXbXbXbXbXbX% bXbX% bXbXbXbXbXbXbXbXbXbXbXbXbXbXbXbXbXbXbXbXbXbXbXbXbXbXbXbXbXbXbX",
"bXbXbXbXbXbXbXbXbXbXbXbXbXbXbXbXbXbXbXbXbXbXbXbXbXbXbX& * 2 r = - q h bXbXbXbXbXbXbXbXbXbXbXbXbXbXbXbXbXbXbXbXbXbXbXbXbXbXbXbXbX",
"bXbXbXbXbXbXbXbXbXbXbXbXbXbXbXbXbXbXbXbXbXf U >.>.1.,.,.,.,.,.,.,.,.,.,.,.>.b v h bXbXbXbXbXbXbXbXbXbXbXbXbXbXbXbXbXbXbXbXbXbXbX",
"bXbXbXbXbXbXbXbXbXbXbXbXbXbXbXbXbXbXbXbX<.7.G _ +.&.J.'.'.'.J.z.^.'.'.J.o.| _ A ! ! x bXbXbXbXbXbXbXbXbXbXbXbXbXbXbXbXbXbXbXbXbX",
"bXbXbXbXbXbXbXbXbXbXbXbXbXbXbXbXbXbXbXT 0.D d } } $./.4X3X<XE.-.].3X5X].*.} } ] 9 7.7.f bXbXbXbXbXbXbXbXbXbXbXbXbXbXbXbXbXbXbXbX",
"bXbXbXbXbXbXbXbXbXbXbXbXbXbXbXbXbXbXbXP r.- u D x.M.!.|.3X<Xc.+.@X2X,X^.M.M.o.S 2 < r.w bXbXbXbXbXbXbXbXbXbXbXbXbXbXbXbXbXbXbXbX",
"bXbXbXbXbXbXbXbXbXbXbXbXbXbXbXbXbXbXbXI e.< s.s.#X#X%XhXvXlX~.z.9XxXfX7X#X#XK.r.Y < 4.v bXbXbXbXbXbXbXbXbXbXbXbXbXbXbXbXbXbXbXbX",
"bXbXbXbXbXbXbXbXbXbXbXbXbXbXbXbXbXbXf ,.e.R L. X#X#X%XhXvXlX$X+X8XxXzX7X#X#X.XC.f.M 6.b bXbXbXbXbXbXbXbXbXbXbXbXbXbXbXbXbXbXbXbX",
"bXbXbXbXbXbXbXbXbXbXbXbXbXbXbXbXbXbX, 1.t.r.Z..X#X+X$X1X5X1X+XXX@X4X2X@X+X#X+XZ.f.P d.n bXbXbXbXbXbXbXbXbXbXbXbXbXbXbXbXbXbXbXbX",
"bXbXbXbXbXbXbXbXbXbXbXbXbXbXbXbXbXbX4 1.B.N.B.V.m.p.+.` ' ) _ H ` ' ) | i.v.m.B.N.f.g.C % bXbXbXbXbXbXbXbXbXbXbXbXbXbXbXbXbXbXbX",
"bXbXbXbXbXbXbXbXbXbXbXbXbXbXbXbXbXbXq 4.C.d.L M ; X .     . . X + + + + + ; < J 2.g.g.C r bXbXbXbXbXbXbXbXbXbXbXbXbXbXbXbXbXbXbX",
"bXbXbXbXbXbXbXbXbXbXbXbXbXbXbXbXbXbXu t.N.e.- X X X X X X . X . . . X O + @ + + M 5.g.C 4 bXbXbXbXbXbXbXbXbXbXbXbXbXbXbXbXbXbXbX",
"bXbXbXbXbXbXbXbXbXbXbXbXbXbXbXbXbXbXD u.f.u.@ @ @ # # # # # $ # @ @ + + + X X X < 5.6.J 4 bXbXbXbXbXbXbXbXbXbXbXbXbXbXbXbXbXbXbX",
"bXbXbXbXbXbXbXbXbXbXbXbXbXbXbXbXbXbXD t.t.n.2 # $ : : 3 3 3 3 3 3 3 3 3 3 $ @ X F d.,.J 4 bXbXbXbXbXbXbXbXbXbXbXbXbXbXbXbXbXbXbX",
"bXbXbXbXbXbXbXbXbXbXbXbXbXbXbXbXbXbXD e.t.K.u : 3 5 5 5 5 5 5 5 5 5 5 5 5 3 $ @ i.N.I J 4 bXbXbXbXbXbXbXbXbXbXbXbXbXbXbXbXbXbXbX",
"bXbXbXbXbXbXbXbXbXbXbXbXbXbXbXbXbXbXD e.d.XXD : 5 6 6 6 6 6 6 6 6 6 6 6 6 3 $ @ x.B.2.Y 4 bXbXbXbXbXbXbXbXbXbXbXbXbXbXbXbXbXbXbX",
"bXbXbXbXbXbXbXbXbXbXbXbXbXbXbXbXbXbXu P g. XD 3 5 7 8 8 8 8 8 8 7 7 7 7 6 3 $ : a.V.2.Y a bXbXbXbXbXbXbXbXbXbXbXbXbXbXbXbXbXbXbX",
"bXbXbXbXbXbXbXbXbXbXbXbXbXbXbXbXbXbXe L 5. X_ : 5 7 9 0 0 0 0 0 9 9 9 9 7 5 $ 5 x.b.P Y a bXbXbXbXbXbXbXbXbXbXbXbXbXbXbXbXbXbXbX",
"bXbXbXbXbXbXbXbXbXbXbXbXbXbXbXbXbXbXq g > b._ # # : 5 5 6 6 9 0 0 0 0 9 7 3 : i M...l F s bXbXbXbXbXbXbXbXbXbXbXbXbXbXbXbXbXbXbX",
"bXbXbXbXbXbXbXbXbXbXbXbXbXbXbXbXbXbXm g o r._ 5 0 p { R././.Y.;.R././.Y.' i 9 p v.e < Z t bXbXbXbXbXbXbXbXbXbXbXbXbXbXbXbXbXbXbX",
"bXbXbXbXbXbXbXbXbXbXbXbXbXbXbXbXbXbXw M o G &.p / [ ;.4XvXzX<X_.3XxXcX,X*./ i u k.; < Z bXbXbXbXbXbXbXbXbXbXbXbXbXbXbXbXbXbXbXbX",
"bXbXbXbXbXbXbXbXbXbXbXbXbXbXbXbXbXbXx V o q &.( } %.U.4XxXdX,X_.2XgXgX>X*.( i A +.X * n bXbXbXbXbXbXbXbXbXbXbXbXbXbXbXbXbXbXbXbX",
"bXbXbXbXbXbXbXbXbXbXbXbXbXbXbXbXbXbXf z O ; _ / } =.E.6XcXfX<X`.2XgXzX>X*.) i A H + * k bXbXbXbXbXbXbXbXbXbXbXbXbXbXbXbXbXbXbXbX",
"bXbXbXbXbXbXbXbXbXbXbXbXbXbXbXbXbXbXf z ; $ _ d ] %.T.5XcXzX2X}.5XxXzX<X;.[ i H G : < k bXbXbXbXbXbXbXbXbXbXbXbXbXbXbXbXbXbXbXbX",
"bXbXbXbXbXbXbXbXbXbXbXbXbXbXbXbXbXbX& g O + _ S ( %.T.5XcXfX<X].4XzXcX2XT.*.( H e + * j bXbXbXbXbXbXbXbXbXbXbXbXbXbXbXbXbXbXbXbX",
"bXbXbXbXbXbXbXbXbXbXbXbXbXbXbXbXbXbX& z O @ o.D / } I.3XcXfX<X].3XzXzX<XU.*.' k.A # * j bXbXbXbXbXbXbXbXbXbXbXbXbXbXbXbXbXbXbXbX",
"bXbXbXbXbXbXbXbXbXbXbXbXbXbXbXbXbXbXx V ; 3 i.| ] %.Y.3XxXfX,X_.2XgXxX<XP.$./ a.A : < n bXbXbXbXbXbXbXbXbXbXbXbXbXbXbXbXbXbXbXbX",
"bXbXbXbXbXbXbXbXbXbXbXbXbXbXbXbXbXbXx V ; 3 i.X.$.-.W.6XcXfX,X_.2XgXzX>X:.$./ a.B # < K bXbXbXbXbXbXbXbXbXbXbXbXbXbXbXbXbXbXbXbX",
"bXbXbXbXbXbXbXbXbXbXbXbXbXbXbXbXbXbXx V ; 3 i.X.$.-.W.6XcXzX2X[.3XzXzX>X;.{ p p.A @ > n bXbXbXbXbXbXbXbXbXbXbXbXbXbXbXbXbXbXbXbX",
"bXbXbXbXbXbXbXbXbXbXbXbXbXbXbXbXbXbXx V ; 3 i.X.%.;.W.6XcXzX3X}.5XzXcX<XY.%./ p.B # > c bXbXbXbXbXbXbXbXbXbXbXbXbXbXbXbXbXbXbXbX",
"bXbXbXbXbXbXbXbXbXbXbXbXbXbXbXbXbXbXx V ; 3 i.X.%.;.W.6XvXzX3X}.5XcXcX2XR.-.[ k.B O > n bXbXbXbXbXbXbXbXbXbXbXbXbXbXbXbXbXbXbXbX",
"bXbXbXbXbXbXbXbXbXbXbXbXbXbXbXbXbXbXx V ; : i.X.%.;.Q.pXvXcX4X}.6XcXvX2XE.;.{ z.A # * j bXbXbXbXbXbXbXbXbXbXbXbXbXbXbXbXbXbXbXbX",
"bXbXbXbXbXbXbXbXbXbXbXbXbXbXbXbXbXbXx V ; :  .( / ( } ;.U.U.=.%.-.U.U.=.} ' / +.A : > j bXbXbXbXbXbXbXbXbXbXbXbXbXbXbXbXbXbXbXbX",
"bXbXbXbXbXbXbXbXbXbXbXbXbXbXbXbXbXbXx V ; 2 o.$ + 5 7 9 9 9 9 9 9 8 8 9 0 9 6 H H $ 1 c bXbXbXbXbXbXbXbXbXbXbXbXbXbXbXbXbXbXbXbX",
"bXbXbXbXbXbXbXbXbXbXbXbXbXbXbXbXbXbX& z - A H X @ 6 9 0 0 0 0 0 0 0 0 0 0 0 6 e  .; < K bXbXbXbXbXbXbXbXbXbXbXbXbXbXbXbXbXbXbXbX",
"bXbXbXbXbXbXbXbXbXbXbXbXbXbXbXbXbXbX, g -  .; X @ 6 9 9 9 9 9 9 9 9 9 9 9 9 6 : H Z 1 K bXbXbXbXbXbXbXbXbXbXbXbXbXbXbXbXbXbXbXbX",
"bXbXbXbXbXbXbXbXbXbXbXbXbXbXbXbXbXt u 1 M G . X @ 6 7 7 7 7 7 7 7 7 7 7 7 6 5 : 2 ..1 B y bXbXbXbXbXbXbXbXbXbXbXbXbXbXbXbXbXbXbX",
"bXbXbXbXbXbXbXbXbXbXbXbXbXbXbXbXbXbXw Z R - X O @ 3 6 6 6 6 6 6 6 6 6 6 6 6 5 : @ F G N bXbXbXbXbXbXbXbXbXbXbXbXbXbXbXbXbXbXbXbX",
"bXbXbXbXbXbXbXbXbXbXbXbXbXbXbXbXbXbX& 4.R . X X + # 5 5 5 5 5 5 5 5 5 5 5 3 : $ @ q u.E bXbXbXbXbXbXbXbXbXbXbXbXbXbXbXbXbXbXbXbX",
"bXbXbXbXbXbXbXbXbXbXbXbXbXbXbXbXbXbXf 6.V   . X O + $ 3 3 3 3 3 3 3 3 : : $ $ @ @ ; u.<.bXbXbXbXbXbXbXbXbXbXbXbXbXbXbXbXbXbXbXbX",
"bXbXbXbXbXbXbXbXbXbXbXbXbXbXbXbXbXbX& 6.V     . X X X # $ $ $ $ $ $ # # # # @ @ + # s.3.bXbXbXbXbXbXbXbXbXbXbXbXbXbXbXbXbXbXbXbX",
"bXbXbXbXbXbXbXbXbXbXbXbXbXbXbXbXbXbX& 1.< # .         . O @ @ @ @ @ @ @ + + + + : i ..3.bXbXbXbXbXbXbXbXbXbXbXbXbXbXbXbXbXbXbXbX",
"bXbXbXbXbXbXbXbXbXbXbXbXbXbXbXbXbXbX, I 2 / { d 8 : @ . X O @ @ # @ @ # 6 9 d ) %.) H r.bXbXbXbXbXbXbXbXbXbXbXbXbXbXbXbXbXbXbXbX",
"bXbXbXbXbXbXbXbXbXbXbXbXbXbXbXbXbXbXm 2.2 / =.I.Y.E.Q._.]._.T.U.).].].Q.).).Q.T.;.) H e.t bXbXbXbXbXbXbXbXbXbXbXbXbXbXbXbXbXbXbX",
"bXbXbXbXbXbXbXbXbXbXbXbXbXbXbXbXbXbXB e.2 / =.I.R.(.|.dXvXdX|.].aXvXzX2X`.`.W.U.-.) H e.y bXbXbXbXbXbXbXbXbXbXbXbXbXbXbXbXbXbXbX",
"bXbXbXbXbXbXbXbXbXbXbXbXbXbXbXbXbXbXF 2.9 / *.I.T.(.}.sXxXsX}.`.pXxXdX,X).(.Y.:.$.d Y e.r bXbXbXbXbXbXbXbXbXbXbXbXbXbXbXbXbXbXbX",
"bXbXbXbXbXbXbXbXbXbXbXbXbXbXbXbXbXbXF e.u { ;.Y.R.(.].pXxXsX}.`.pXxXsX}.).(.Y.;.{ 8 Z 2.r bXbXbXbXbXbXbXbXbXbXbXbXbXbXbXbXbXbXbX",
"bXbXbXbXbXbXbXbXbXbXbXbXbXbXbXbXbXbXM e.2 d *.Y.W._.{.pXxXsX{.`.pXxXsX}.).(.Y.-.' 5 C L r bXbXbXbXbXbXbXbXbXbXbXbXbXbXbXbXbXbXbX",
"bXbXbXbXbXbXbXbXbXbXbXbXbXbXbXbXbXbX1 t.A / %.I.T.).{.aXxXdX>X}.aXxXsX}.).(.U.=.) 3 2.L = bXbXbXbXbXbXbXbXbXbXbXbXbXbXbXbXbXbXbX",
"bXbXbXbXbXbXbXbXbXbXbXbXbXbXbXbXbXbX1 5.G ) *.R.E._.{.pXxXfX1X,XdXcXsX|._.Q.U.*.( 3 2.L = bXbXbXbXbXbXbXbXbXbXbXbXbXbXbXbXbXbXbX",
"bXbXbXbXbXbXbXbXbXbXbXbXbXbXbXbXbXbX1 4.G ) %.T.E._.|.aXcXfX<X>XdXcXsX|.`.).R.-.' 7 2.L = bXbXbXbXbXbXbXbXbXbXbXbXbXbXbXbXbXbXbX",
"bXbXbXbXbXbXbXbXbXbXbXbXbXbXbXbXbXbXe 1.B d $.I.R._.{.6XcXzX2X<XdXcXpX[._.Q.Y.*.{ S r.P 4 bXbXbXbXbXbXbXbXbXbXbXbXbXbXbXbXbXbXbX",
"bXbXbXbXbXbXbXbXbXbXbXbXbXbXbXbXbXbXm 1.1 8 ) *.I.Q.[.4XzXzX2X<XdXvXaX|.[.(.T.%.' 9 e.R % bXbXbXbXbXbXbXbXbXbXbXbXbXbXbXbXbXbXbX",
"bXbXbXbXbXbXbXbXbXbXbXbXbXbXbXbXbXbX, 1.1 3 / } ;.R._.,XfXfX2X,XdXcX6X{.[.Q.R.=.} d r.K bXbXbXbXbXbXbXbXbXbXbXbXbXbXbXbXbXbXbXbX",
"bXbXbXbXbXbXbXbXbXbXbXbXbXbXbXbXbXbX& I M 3 / [ =.I.(.|.dXfX<X|.dXzX2X`.`.W.Y.*.} d r.E bXbXbXbXbXbXbXbXbXbXbXbXbXbXbXbXbXbXbXbX",
"bXbXbXbXbXbXbXbXbXbXbXbXbXbXbXbXbXbXbXR G 5 d ) *.:.Q.{.aXfX,X|.sXdX>X_.(.R.*.$.) p 7.Q bXbXbXbXbXbXbXbXbXbXbXbXbXbXbXbXbXbXbXbX",
"bXbXbXbXbXbXbXbXbXbXbXbXbXbXbXbXbXbXbXQ 0.W ( [ %.;.E.].aXgX2X,XdXdX|.).W.I.$.] d ~ 0.9.bXbXbXbXbXbXbXbXbXbXbXbXbXbXbXbXbXbXbXbX",
"bXbXbXbXbXbXbXbXbXbXbXbXbXbXbXbXbXbXbX9.q.S.A.@.-.U.E.`.6XxX5X3XfXaX{.(.R.-.@.^ A.w.h.=XbXbXbXbXbXbXbXbXbXbXbXbXbXbXbXbXbXbXbXbX",
"bXbXbXbXbXbXbXbXbXbXbXbXbXbXbXbXbXbXbX0XG.w.w.S.D.F.F.`.4XfX5X3XdX6X`.W.F.D.S.S.q.j.&XeXbXbXbXbXbXbXbXbXbXbXbXbXbXbXbXbXbXbXbXbX",
"bXbXbXbXbXbXbXbXbXbXbXbXbXbXbXbXbXbXbXrXwX*XH.D.w.8.8.v.M.[.(.^.[.!.v.h.8.q.S.G.&X-XwXrXbXbXbXbXbXbXbXbXbXbXbXbXbXbXbXbXbXbXbXbX",
"bXbXbXbXbXbXbXbXbXbXbXbXbXbXbXbXbXbXbXrXwX:X:X;X-X&XoXv.U #.O.O.l.T y.G.OX*X-X;X;XqXwXyXbXbXbXbXbXbXbXbXbXbXbXbXbXbXbXbXbXbXbXbX",
"bXbXbXbXbXbXbXbXbXbXbXbXbXbXbXbXbXbXbXuXwX:X:X:XqXtXiXkXbXbXbXbXbXbXbXtXtX:X;X;X;XqXwXtXbXbXbXbXbXbXbXbXbXbXbXbXbXbXbXbXbXbXbXbX",
"bXbXbXbXbXbXbXbXbXbXbXbXbXbXbXbXbXbXbXyXtXqXqX:XqXtXiXbXbXbXbXbXbXbXbXyXtXqX:X;X;XqXwXtXjXbXbXbXbXbXbXbXbXbXbXbXbXbXbXbXbXbXbXbX"
};
