/* XPM */
static char *_d900c82a3e942ddf6005798b34a85ffnNQWJ1Teu2HJcqls[] = {
/* columns rows colors chars-per-pixel */
"64 64 82 1 ",
"  c None",
". c #FCAA17",
"X c #FCAB17",
"o c #FCAB18",
"O c #FCAC18",
"+ c #FCAD18",
"@ c #FCAD19",
"# c #FCAE18",
"$ c #FCAF19",
"% c #FCAF1A",
"& c #FCB019",
"* c #FCB11A",
"= c #FCB21A",
"- c #FDB21A",
"; c #FDB21B",
": c #FDB31B",
"> c #FDB41B",
", c #FDB51C",
"< c #FDB61C",
"1 c #FDB71C",
"2 c #FDB81D",
"3 c #FDB91D",
"4 c #FDBA1D",
"5 c #FDB91E",
"6 c #FDBA1E",
"7 c #FDBB1E",
"8 c #FDBB1F",
"9 c #FDBC1E",
"0 c #FDBC1F",
"q c #FDBD1F",
"w c #FDBE1F",
"e c #FDBD20",
"r c #FDBE20",
"t c #FDBF20",
"y c #FDBF21",
"u c #FDC020",
"i c #FDC021",
"p c #FDC121",
"a c #FDC221",
"s c #FCC222",
"d c #FDC322",
"f c #FDC422",
"g c #FDC423",
"h c #FDC523",
"j c #FDC623",
"k c #FDC723",
"l c #FDC624",
"z c #FDC924",
"x c #FDC825",
"c c #FDCA25",
"v c #FDCB25",
"b c #FDCA26",
"n c #FDCB26",
"m c #FDCC26",
"M c #FDCD26",
"N c #FDCD27",
"B c #FDCF26",
"V c #FDCE27",
"C c #FDD128",
"Z c #FED329",
"A c #FED529",
"S c #FED42A",
"D c #FED52A",
"F c #FED62A",
"G c #FED72A",
"H c #FED72B",
"J c #FDD92B",
"K c #FED82B",
"L c #FED92B",
"P c #FDDA2B",
"I c #FDDB2B",
"U c #FEDA2B",
"Y c #FEDB2B",
"T c #FDD92C",
"R c #FED82C",
"E c #FED92C",
"W c #FED92D",
"Q c #FDDA2C",
"! c #FDDB2C",
"~ c #FDDA2D",
"^ c #FEDA2C",
"/ c #FEDB2D",
/* pixels */
"                                                                ",
"                                                                ",
"                                                                ",
"                                                                ",
"                         ^^^^^^^^^^^^^^                         ",
"                      ^^^^^^^^^^^^^^^^^^^^                      ",
"                   ^^^^^^^^^^^^^^^^^^^^^^^^^^                   ",
"                 ^^^^^^^^^^^^^^^^^^^^^^^^^^^^^^                 ",
"                ^^^^^^^^^^^^^^^^^^^^^^^^^^^^^^^^                ",
"               ^^^^^^^^^^^^^^^^^^^^^^^^^^^^^^^^^^^              ",
"             ^^^^^^^^^^^^^Ns4;OOOO;4sN^^^^^^^^^^^^^             ",
"            ^^^^^^^^^^^N0O............O4N^^^^^^^^^^^            ",
"           ^^^^^^^^^^N>..................>N^^^^^^^^^^           ",
"          ^^^^^^^^^S4......................4S^^^^^^^^U          ",
"          ^^^^^^^^vO........................Ov^^^^^^^^          ",
"         ^^^^^^^^s.............;;.............s^^^^^^^^         ",
"        ^^^^^^^^y..............vv..............s^^^^^^^^        ",
"       ^^^^^^^^s..............;^^;..............g^^^^^^^        ",
"       ^^^^^^^N...............v^^v...............v^^^^^^^       ",
"      ^^^^^^^SO..............;^^^^;..............OS^^^^^^U      ",
"      ^^^^^^^4...............v^^^^v...............4^^^^^^^      ",
"      ^^^^^^N...............;^^^^^^;...............N^^^^^^      ",
"     ^^^^^^^>...............v^^^^^^v...............>^^^^^^^     ",
"     ^^^^^^N...............;U^^^^^^U;...............N^^^^^^     ",
"     ^^^^^^0...............v^^^^^^^^v...............0^^^^^^     ",
"    ^^^^^^^O..........O10gvU^^^^^^^^Uvg01O..........O^^^^^^^    ",
"    ^^^^^^N....o10gvCU^^^^^^^^^^^^^^^^^^^^UCvg01o....N^^^^^^    ",
"    ^^^^^^s.....s^^^^^^^^^^^^^^^^^^^^^^^^^^^^^^s.....s^^^^^^    ",
"    ^^^^^^4......s^^^^^^^^^^^^^^^^^^^^^^^^^^^^s......4^^^^^^    ",
"    ^^^^^^;.......s^^^^^^^^^^^^^^^^^^^^^^^^^^s.......;^^^^^^    ",
"    ^^^^^^O........y^^^^^^^^^^^^^^^^^^^^^^^^y........O^^^^^^    ",
"    ^^^^^^O.........y^^^^^^^^^^^^^^^^^^^^^^y.........O^^^^^^    ",
"    ^^^^^^O..........0^^^^^^^^^^^^^^^^^^^^0..........O^^^^^^    ",
"    ^^^^^^O...........4U^^^^^^^^^^^^^^^^U0...........O^^^^^^    ",
"    ^^^^^^;............0^^^^^^^^^^^^^^^^0............;^^^^^^    ",
"    ^^^^^^4............1^^^^^^^^^^^^^^^^>............4^^^^^^    ",
"    ^^^^^^s............0^^^^^^^^^^^^^^^^0............s^^^^^^    ",
"    ^^^^^^N............g^^^^^^^^^^^^^^^^g............N^^^^^^    ",
"    ^^^^^^^O...........N^^^^^^^^^^^^^^^^N...........O^^^^^^U    ",
"     ^^^^^^4...........S^^^^^^^^^^^^^^^^S...........0^^^^^^     ",
"     ^^^^^^N..........O^^^^^^^^CC^^^^^^^^O..........N^^^^^^     ",
"     ^^^^^^^1.........1^^^^^^Ss.oyS^^^^^^1.........>^^^^^^^     ",
"      ^^^^^^N.........0^^^^SsO.....yS^^^^0.........N^^^^^^      ",
"      ^^^^^^^4........g^^UsO........OsS^^l........4^^^^^^^      ",
"      ^^^^^^^SO.......N^gO............Os^N.......OS^^^^^^^      ",
"       ^^^^^^^v.......g;................;g.......N^^^^^^^       ",
"       U^^^^^^^s................................g^^^^^^^        ",
"        ^^^^^^^^s..............................s^^^^^^^^        ",
"         ^^^^^^^^g............................g^^^^^^^^         ",
"          ^^^^^^^^vO........................Ov^^^^^^^^          ",
"          U^^^^^^^^S4......................4S^^^^^^^^^          ",
"           ^^^^^^^^^^N1..................1N^^^^^^^^^^           ",
"            ^^^^^^^^^^^N0O............O0N^^^^^^^^^^^            ",
"             ^^^^^^^^^^^^^Ns4;OOO;;4sN^^^^^^^^^^^^^             ",
"               ^^^^^^^^^^^^^^^^^^^^^^^^^^^^^^^^^^^              ",
"                ^^^^^^^^^^^^^^^^^^^^^^^^^^^^^^^^                ",
"                  ^^^^^^^^^^^^^^^^^^^^^^^^^^^^^                 ",
"                   U^^^^^^^^^^^^^^^^^^^^^^^^^                   ",
"                      ^^^^^^^^^^^^^^^^^^^^                      ",
"                         ^^^^^^^^^^^^^^                         ",
"                                                                ",
"                                                                ",
"                                                                ",
"                                                                "
};
