/* XPM */
static char *out[] = {
/* columns rows colors chars-per-pixel */
"64 64 82 1 ",
"  c None",
". c #FCAA17",
"X c #FCAB17",
"o c #FCAB18",
"O c #FCAC18",
"+ c #FCAD18",
"@ c #FCAD19",
"# c #FCAE18",
"$ c #FCAF19",
"% c #FCAF1A",
"& c #FCB019",
"* c #FCB11A",
"= c #FCB21A",
"- c #FDB21A",
"; c #FDB21B",
": c #FDB31B",
"> c #FDB41B",
", c #FDB51C",
"< c #FDB61C",
"1 c #FDB71C",
"2 c #FDB81D",
"3 c #FDB91D",
"4 c #FDBA1D",
"5 c #FDB91E",
"6 c #FDBA1E",
"7 c #FDBB1E",
"8 c #FDBB1F",
"9 c #FDBC1E",
"0 c #FDBC1F",
"q c #FDBD1F",
"w c #FDBE1F",
"e c #FDBD20",
"r c #FDBE20",
"t c #FDBF20",
"y c #FDBF21",
"u c #FDC020",
"i c #FDC021",
"p c #FDC121",
"a c #FDC221",
"s c #FCC222",
"d c #FDC322",
"f c #FDC422",
"g c #FDC423",
"h c #FDC523",
"j c #FDC623",
"k c #FDC723",
"l c #FDC624",
"z c #FDC924",
"x c #FDC825",
"c c #FDCA25",
"v c #FDCB25",
"b c #FDCA26",
"n c #FDCB26",
"m c #FDCC26",
"M c #FDCD26",
"N c #FDCD27",
"B c #FDCF26",
"V c #FDCE27",
"C c #FDD128",
"Z c #FED329",
"A c #FED529",
"S c #FED42A",
"D c #FED52A",
"F c #FED62A",
"G c #FED72A",
"H c #FED72B",
"J c #FDD92B",
"K c #FED82B",
"L c #FED92B",
"P c #FDDA2B",
"I c #FDDB2B",
"U c #FEDA2B",
"Y c #FEDB2B",
"T c #FDD92C",
"R c #FED82C",
"E c #FED92C",
"W c #FED92D",
"Q c #FDDA2C",
"! c #FDDB2C",
"~ c #FDDA2D",
"^ c #FEDA2C",
"/ c #FEDB2D",
/* pixels */
"                                                                ",
"                                                                ",
"                                                                ",
"                                                                ",
"                         ^^^^^^^^^^^^^^                         ",
"                      ^^^^^^^^^^^^^^^^^^^^                      ",
"                   Q^^^^^^^^^^^^^^^^^^^^^^^^T                   ",
"                 T^^^^^^^^^^^^^^^^^^^^^^^^^^^^Q                 ",
"                ^^^^^^^^^^^^^^^^^^^^^^^^^^^^^^^^                ",
"               ^^^^^^^^^^^^^^^^^^^^^^^^^^^^^^^^^^T              ",
"             Q^^^^^^^^^^^RNs4;%@@%;6aVR^^^^^^^^^^^^             ",
"            ^^^^^^^^^^^N0O............O8V^^^^^^^^^^^            ",
"           ^^^^^^^^^^m>..................>m^^^^^^^^^/           ",
"          !^^^^^^^^S2......................3S^^^^^^^^P          ",
"          ^^^^^^^^v+........................+c^^^^^^^^          ",
"         ^^^^^^^^d.............::.............d^^^^^^^^         ",
"        ^^^^^^^^y..............vv..............u^^^^^^^^        ",
"       ~^^^^^^^d..............-E^:..............f^^^^^^^        ",
"       ^^^^^^^m...............b^^c...............v^^^^^^^       ",
"      Q^^^^^^S#..............=E^^^;..............+S^^^^^^I      ",
"      ^^^^^^^3...............c^^^^c...............5^^^^^^^      ",
"      ^^^^^^m...............=E^^^^E:...............m^^^^^^      ",
"     ^^^^^^^>...............z^^^^^^z...............>^^^^^^^     ",
"     ^^^^^^N...............*U^^^^^^L*...............V^^^^^^     ",
"     ^^^^^^0...............z^^^^^^^^x...............0^^^^^^     ",
"    ^^^^^^RO..........$1qgvU^^^^^^^^Uvgq1$..........OE^^^^^W    ",
"    ^^^^^^N....o,0fbCK^^^^^^^^^^^^^^^^^^^^KCbf0,o....B^^^^^^    ",
"    ^^^^^^s.....p^^^^^^^^^^^^^^^^^^^^^^^^^^^^^^d.....a^^^^^^    ",
"    ^^^^^^4......p^^^^^^^^^^^^^^^^^^^^^^^^^^^^s......6^^^^^^    ",
"    ^^^^^^;.......i^^^^^^^^^^^^^^^^^^^^^^^^^^p.......:^^^^^^    ",
"    ^^^^^^$........r^^^^^^^^^^^^^^^^^^^^^^^^t........$^^^^^^    ",
"    ^^^^^^+.........eE^^^^^^^^^^^^^^^^^^^^^t.........@^^^^^^    ",
"    ^^^^^^+..........qE^^^^^^^^^^^^^^^^^^^w..........@^^^^^^    ",
"    ^^^^^^$...........7U^^^^^^^^^^^^^^^^L0...........$^^^^^^    ",
"    ^^^^^^:............9^^^^^^^^^^^^^^^^9............:^^^^^^    ",
"    ^^^^^^4............,^^^^^^^^^^^^^^^^>............6^^^^^^    ",
"    ^^^^^^a............0^^^^^^^^^^^^^^^^q............a^^^^^^    ",
"    ^^^^^^N............h^^^^^^^^^^^^^^^^f............B^^^^^^    ",
"    ^^^^^^RO...........M^^^^^^^^^^^^^^^^M...........+E^^^^^Y    ",
"     ^^^^^^8...........F^^^^^^^^^^^^^^^^D...........q^^^^^^     ",
"     ^^^^^^V..........+^^^^^^^^ZZ^^^^^^^^+..........V^^^^^^     ",
"     ^^^^^^^,.........<^^^^^^FpXoeA^^^^^^<.........>^^^^^^^     ",
"      ^^^^^^m.........w^^^^HpO....XeD^^^^w.........m^^^^^^      ",
"      ^^^^^^^3........j^^Kd@........OpG^^l........5^^^^^^^      ",
"      Q^^^^^^S#.......VEk$............+dRV.......+D^^^^^^Q      ",
"       ^^^^^^^v.......g&................&g.......m^^^^^^^       ",
"       J^^^^^^^d................................g^^^^^^^        ",
"        ^^^^^^^^u..............................u^^^^^^^^        ",
"         ^^^^^^^^f............................g^^^^^^^^         ",
"          ^^^^^^^^n+........................@c^^^^^^^^          ",
"          P^^^^^^^^S5......................5D^^^^^^^^T          ",
"           W^^^^^^^^^m,..................,m^^^^^^^^^^           ",
"            ^^^^^^^^^^^V0O............+0V^^^^^^^^^^W            ",
"             Q^^^^^^^^^^^EVa7:$@@&:7aBE^^^^^^^^^^^T             ",
"               ^^^^^^^^^^^^^^^^^^^^^^^^^^^^^^^^^^T              ",
"                ^^^^^^^^^^^^^^^^^^^^^^^^^^^^^^^^                ",
"                  ^^^^^^^^^^^^^^^^^^^^^^^^^^^^T                 ",
"                   I^^^^^^^^^^^^^^^^^^^^^^^^Q                   ",
"                      ^^^^^^^^^^^^^^^^^^^^                      ",
"                         ^^^^^^^^^^^^^W                         ",
"                                                                ",
"                                                                ",
"                                                                ",
"                                                                "
};
